<svg width="108" height="860" viewBox="0 0 108 860" fill="none" xmlns="http://www.w3.org/2000/svg">
<mask id="path-1-inside-1_9409_4223" fill="white">
<path fill-rule="evenodd" clip-rule="evenodd" d="M105.429 0C39.3596 118.657 0 267.894 0 430C0 592.106 39.3596 741.343 105.429 860H108L108 0H105.429Z"/>
</mask>
<path fill-rule="evenodd" clip-rule="evenodd" d="M105.429 0C39.3596 118.657 0 267.894 0 430C0 592.106 39.3596 741.343 105.429 860H108L108 0H105.429Z" fill="#FFFBF9"/>
<path d="M105.429 0V-1H104.842L104.556 -0.486511L105.429 0ZM105.429 860L104.556 860.486L104.842 861H105.429V860ZM108 860V861H109V860H108ZM108 0H109V-1H108V0ZM0 430H1C1 268.051 40.3221 118.984 106.303 0.486511L105.429 0L104.556 -0.486511C38.397 118.33 -1 267.736 -1 430H0ZM105.429 860L106.303 859.514C40.3221 741.016 1 591.949 1 430H0H-1C-1 592.264 38.397 741.67 104.556 860.486L105.429 860ZM108 860V859H105.429V860V861H108V860ZM108 0H107L107 860H108H109L109 0H108ZM105.429 0V1H108V0V-1H105.429V0Z" fill="#DACFCA" mask="url(#path-1-inside-1_9409_4223)"/>
<path d="M55.5 419.5L66 430L55.5 440.5" stroke="#DACFCA" stroke-width="2" stroke-linecap="round" stroke-linejoin="round"/>
</svg>
