<svg width="335" height="25" viewBox="0 0 335 25" fill="none" xmlns="http://www.w3.org/2000/svg">
<path d="M5 10.9231C5 15.7749 9.24448 19.7872 11.1232 21.3255L11.1239 21.3261C11.3933 21.5466 11.5281 21.657 11.7288 21.7135C11.885 21.7575 12.1148 21.7575 12.271 21.7135C12.472 21.6569 12.6071 21.5464 12.877 21.3255C14.7557 19.7872 19 15.7749 19 10.9231C19 9.08695 18.2625 7.32605 16.9497 6.02772C15.637 4.72939 13.8566 4 12 4C10.1435 4 8.36301 4.72938 7.05025 6.02771C5.7375 7.32604 5 9.08698 5 10.9231Z" stroke="#A3887B" stroke-width="1.5" stroke-linecap="round" stroke-linejoin="round"/>
<path d="M12 7.75C13.7949 7.75 15.25 9.20507 15.25 11C15.25 12.7949 13.7949 14.25 12 14.25C10.2051 14.25 8.75 12.7949 8.75 11C8.75 9.20507 10.2051 7.75 12 7.75Z" stroke="#A3887B" stroke-width="1.5"/>
<path d="M35.53 19V10.144H41.416V11.314H36.34L36.916 10.738V19H35.53ZM42.1546 19.216C41.8546 19.216 41.6026 19.114 41.3986 18.91C41.2066 18.706 41.1106 18.454 41.1106 18.154C41.1106 17.854 41.2066 17.602 41.3986 17.398C41.6026 17.194 41.8546 17.092 42.1546 17.092C42.4546 17.092 42.7006 17.194 42.8926 17.398C43.0966 17.602 43.1986 17.854 43.1986 18.154C43.1986 18.454 43.0966 18.706 42.8926 18.91C42.7006 19.114 42.4546 19.216 42.1546 19.216ZM51.7269 19H50.2869V6.13H51.7269V19ZM60.1689 19H58.0269L51.3129 12.322H51.5649L57.5589 6.13H59.4669L53.0769 12.556V12.088L60.1689 19ZM66.9989 10.144H68.4029L64.1909 20.566C63.9509 21.166 63.6449 21.634 63.2729 21.97C62.9129 22.318 62.3429 22.492 61.5629 22.492H60.5189V21.304H61.5629C61.9709 21.304 62.2889 21.208 62.5169 21.016C62.7449 20.824 62.9249 20.542 63.0569 20.17L63.4709 19.036L59.8709 10.144H61.3469L64.4249 18.244H63.9029L66.9989 10.144ZM71.914 22.492H70.528V10.144H71.896V12.826H71.572C71.668 12.238 71.884 11.722 72.22 11.278C72.556 10.834 72.976 10.486 73.48 10.234C73.996 9.982 74.554 9.856 75.154 9.856C75.97 9.856 76.69 10.06 77.314 10.468C77.938 10.876 78.43 11.44 78.79 12.16C79.15 12.868 79.33 13.672 79.33 14.572C79.33 15.484 79.144 16.294 78.772 17.002C78.4 17.71 77.89 18.268 77.242 18.676C76.606 19.084 75.874 19.288 75.046 19.288C74.302 19.288 73.648 19.126 73.084 18.802C72.52 18.466 72.094 18.016 71.806 17.452C71.518 16.876 71.41 16.234 71.482 15.526L71.752 15.166C71.8 15.73 71.962 16.234 72.238 16.678C72.526 17.11 72.898 17.452 73.354 17.704C73.81 17.956 74.308 18.082 74.848 18.082C75.448 18.082 75.97 17.932 76.414 17.632C76.87 17.332 77.224 16.918 77.476 16.39C77.74 15.862 77.872 15.256 77.872 14.572C77.872 13.888 77.746 13.282 77.494 12.754C77.254 12.226 76.912 11.812 76.468 11.512C76.036 11.212 75.532 11.062 74.956 11.062C74.368 11.062 73.846 11.224 73.39 11.548C72.934 11.86 72.574 12.298 72.31 12.862C72.046 13.426 71.914 14.08 71.914 14.824V22.492ZM88.2568 16.642L89.2288 17.56C88.8208 18.112 88.3168 18.538 87.7168 18.838C87.1168 19.138 86.4448 19.288 85.7008 19.288C84.8368 19.288 84.0688 19.09 83.3968 18.694C82.7368 18.286 82.2148 17.728 81.8308 17.02C81.4588 16.312 81.2728 15.496 81.2728 14.572C81.2728 13.648 81.4648 12.832 81.8488 12.124C82.2328 11.416 82.7608 10.864 83.4328 10.468C84.1048 10.06 84.8728 9.856 85.7368 9.856C87.2368 9.856 88.4068 10.432 89.2468 11.584L88.2568 12.502C88.0048 12.046 87.6568 11.692 87.2128 11.44C86.7688 11.188 86.2648 11.062 85.7008 11.062C84.8248 11.062 84.1108 11.38 83.5588 12.016C83.0068 12.652 82.7308 13.504 82.7308 14.572C82.7308 15.628 83.0068 16.48 83.5588 17.128C84.1228 17.764 84.8548 18.082 85.7548 18.082C86.2948 18.082 86.7748 17.962 87.1948 17.722C87.6148 17.47 87.9688 17.11 88.2568 16.642ZM91.4988 19V10.144H92.8848V19H91.4988ZM97.1148 19L92.2908 14.392H92.4888L96.8088 10.144H98.6448L94.0008 14.662L93.6228 13.906L99.0587 19H97.1148ZM101.176 21.556H100.258C100.93 20.632 101.266 19.72 101.266 18.82L101.428 19.216C101.128 19.216 100.876 19.114 100.672 18.91C100.468 18.706 100.366 18.454 100.366 18.154C100.366 17.854 100.462 17.602 100.654 17.398C100.858 17.194 101.11 17.092 101.41 17.092C101.722 17.092 101.974 17.2 102.166 17.416C102.358 17.632 102.454 17.896 102.454 18.208C102.454 18.76 102.334 19.342 102.094 19.954C101.854 20.578 101.548 21.112 101.176 21.556ZM115.339 10.144H116.743L112.531 20.566C112.291 21.166 111.985 21.634 111.613 21.97C111.253 22.318 110.683 22.492 109.903 22.492H108.859V21.304H109.903C110.311 21.304 110.629 21.208 110.857 21.016C111.085 20.824 111.265 20.542 111.397 20.17L111.811 19.036L108.211 10.144H109.687L112.765 18.244H112.243L115.339 10.144ZM117.706 19V17.812H118.444C118.72 17.812 118.93 17.728 119.074 17.56C119.218 17.38 119.308 17.068 119.344 16.624L119.866 10.144H125.86V19H124.474V11.098L124.69 11.314H120.928L121.162 11.098L120.658 16.822C120.586 17.626 120.388 18.19 120.064 18.514C119.752 18.838 119.266 19 118.606 19H117.706ZM129.571 19.216C129.271 19.216 129.019 19.114 128.815 18.91C128.623 18.706 128.527 18.454 128.527 18.154C128.527 17.854 128.623 17.602 128.815 17.398C129.019 17.194 129.271 17.092 129.571 17.092C129.871 17.092 130.117 17.194 130.309 17.398C130.513 17.602 130.615 17.854 130.615 18.154C130.615 18.454 130.513 18.706 130.309 18.91C130.117 19.114 129.871 19.216 129.571 19.216ZM137.703 19V6.13H139.143V19H137.703ZM147.279 19.288C146.415 19.288 145.611 19.12 144.867 18.784C144.135 18.448 143.493 17.98 142.941 17.38C142.401 16.768 141.981 16.054 141.681 15.238C141.381 14.41 141.231 13.516 141.231 12.556C141.231 11.596 141.381 10.708 141.681 9.892C141.981 9.076 142.401 8.368 142.941 7.768C143.493 7.156 144.135 6.682 144.867 6.346C145.611 6.01 146.415 5.842 147.279 5.842C148.155 5.842 148.959 6.01 149.691 6.346C150.423 6.682 151.059 7.156 151.599 7.768C152.151 8.368 152.577 9.076 152.877 9.892C153.177 10.708 153.327 11.596 153.327 12.556C153.327 13.516 153.177 14.41 152.877 15.238C152.577 16.054 152.151 16.768 151.599 17.38C151.059 17.98 150.423 18.448 149.691 18.784C148.959 19.12 148.155 19.288 147.279 19.288ZM147.279 17.992C148.167 17.992 148.953 17.758 149.637 17.29C150.321 16.822 150.855 16.18 151.239 15.364C151.635 14.548 151.833 13.612 151.833 12.556C151.833 11.5 151.635 10.57 151.239 9.766C150.855 8.95 150.321 8.308 149.637 7.84C148.953 7.372 148.167 7.138 147.279 7.138C146.403 7.138 145.617 7.372 144.921 7.84C144.237 8.308 143.697 8.95 143.301 9.766C142.917 10.57 142.725 11.5 142.725 12.556C142.725 13.612 142.917 14.548 143.301 15.364C143.697 16.18 144.237 16.822 144.921 17.29C145.617 17.758 146.403 17.992 147.279 17.992ZM138.837 12.952V11.674H142.149V12.952H138.837ZM154.732 19L159.286 14.158L159.232 14.806L154.93 10.144H156.64L160.528 14.392H160.744L156.496 19H154.732ZM160.204 19V10.144H161.554V19H160.204ZM165.298 19L161.05 14.392H161.248L165.136 10.144H166.81L162.49 14.806L162.544 14.158L167.098 19H165.298ZM168.86 19V10.144H170.246V19H168.86ZM175.052 19V10.144H176.438V19H175.052ZM169.472 14.932V13.762H175.88V14.932H169.472ZM179.495 19V10.144H180.881V18.046L180.665 17.83H183.239C183.767 17.83 184.181 17.686 184.481 17.398C184.781 17.11 184.931 16.714 184.931 16.21C184.931 15.718 184.781 15.328 184.481 15.04C184.181 14.752 183.767 14.608 183.239 14.608H180.053V13.438H183.239C184.163 13.438 184.913 13.696 185.489 14.212C186.065 14.716 186.353 15.382 186.353 16.21C186.353 16.726 186.215 17.2 185.939 17.632C185.663 18.052 185.291 18.388 184.823 18.64C184.355 18.88 183.827 19 183.239 19H179.495ZM187.541 19V10.144H188.927V19H187.541ZM191.993 19V10.144H193.379V17.236L193.235 17.074L198.455 10.144H199.661V19H198.275V11.944L198.401 12.106L193.199 19H191.993ZM195.971 8.506C195.167 8.506 194.489 8.302 193.937 7.894C193.397 7.474 193.091 6.892 193.019 6.148H194.261C194.333 6.652 194.519 7.024 194.819 7.264C195.131 7.504 195.515 7.624 195.971 7.624C196.427 7.624 196.805 7.504 197.105 7.264C197.405 7.024 197.591 6.652 197.663 6.148H198.905C198.833 6.892 198.527 7.474 197.987 7.894C197.447 8.302 196.775 8.506 195.971 8.506ZM206.759 19V10.144H214.175V19H212.789V10.918L213.185 11.314H207.767L208.145 10.918V19H206.759ZM223.967 16.462L224.903 17.362C224.435 18.01 223.883 18.496 223.247 18.82C222.623 19.132 221.933 19.288 221.177 19.288C220.289 19.288 219.503 19.084 218.819 18.676C218.147 18.268 217.619 17.71 217.235 17.002C216.863 16.282 216.677 15.472 216.677 14.572C216.677 13.672 216.863 12.868 217.235 12.16C217.619 11.44 218.135 10.876 218.783 10.468C219.443 10.06 220.181 9.856 220.997 9.856C221.801 9.856 222.509 10.054 223.121 10.45C223.745 10.846 224.231 11.398 224.579 12.106C224.927 12.802 225.101 13.606 225.101 14.518V14.626H223.697V14.5C223.697 13.468 223.451 12.64 222.959 12.016C222.467 11.38 221.813 11.062 220.997 11.062C220.445 11.062 219.947 11.212 219.503 11.512C219.071 11.8 218.729 12.208 218.477 12.736C218.237 13.264 218.117 13.87 218.117 14.554C218.117 15.238 218.243 15.844 218.495 16.372C218.759 16.9 219.125 17.32 219.593 17.632C220.073 17.932 220.631 18.082 221.267 18.082C221.819 18.082 222.317 17.95 222.761 17.686C223.205 17.422 223.607 17.014 223.967 16.462ZM225.101 15.058H217.775V13.924H224.831L225.101 14.518V15.058ZM228.992 22.492H227.606V10.144H228.974V12.826H228.65C228.746 12.238 228.962 11.722 229.298 11.278C229.634 10.834 230.054 10.486 230.558 10.234C231.074 9.982 231.632 9.856 232.232 9.856C233.048 9.856 233.768 10.06 234.392 10.468C235.016 10.876 235.508 11.44 235.868 12.16C236.228 12.868 236.408 13.672 236.408 14.572C236.408 15.484 236.222 16.294 235.85 17.002C235.478 17.71 234.968 18.268 234.32 18.676C233.684 19.084 232.952 19.288 232.124 19.288C231.38 19.288 230.726 19.126 230.162 18.802C229.598 18.466 229.172 18.016 228.884 17.452C228.596 16.876 228.488 16.234 228.56 15.526L228.83 15.166C228.878 15.73 229.04 16.234 229.316 16.678C229.604 17.11 229.976 17.452 230.432 17.704C230.888 17.956 231.386 18.082 231.926 18.082C232.526 18.082 233.048 17.932 233.492 17.632C233.948 17.332 234.302 16.918 234.554 16.39C234.818 15.862 234.95 15.256 234.95 14.572C234.95 13.888 234.824 13.282 234.572 12.754C234.332 12.226 233.99 11.812 233.546 11.512C233.114 11.212 232.61 11.062 232.034 11.062C231.446 11.062 230.924 11.224 230.468 11.548C230.012 11.86 229.652 12.298 229.388 12.862C229.124 13.426 228.992 14.08 228.992 14.824V22.492ZM245.641 16.462L246.577 17.362C246.109 18.01 245.557 18.496 244.921 18.82C244.297 19.132 243.607 19.288 242.851 19.288C241.963 19.288 241.177 19.084 240.493 18.676C239.821 18.268 239.293 17.71 238.909 17.002C238.537 16.282 238.351 15.472 238.351 14.572C238.351 13.672 238.537 12.868 238.909 12.16C239.293 11.44 239.809 10.876 240.457 10.468C241.117 10.06 241.855 9.856 242.671 9.856C243.475 9.856 244.183 10.054 244.795 10.45C245.419 10.846 245.905 11.398 246.253 12.106C246.601 12.802 246.775 13.606 246.775 14.518V14.626H245.371V14.5C245.371 13.468 245.125 12.64 244.633 12.016C244.141 11.38 243.487 11.062 242.671 11.062C242.119 11.062 241.621 11.212 241.177 11.512C240.745 11.8 240.403 12.208 240.151 12.736C239.911 13.264 239.791 13.87 239.791 14.554C239.791 15.238 239.917 15.844 240.169 16.372C240.433 16.9 240.799 17.32 241.267 17.632C241.747 17.932 242.305 18.082 242.941 18.082C243.493 18.082 243.991 17.95 244.435 17.686C244.879 17.422 245.281 17.014 245.641 16.462ZM246.775 15.058H239.449V13.924H246.505L246.775 14.518V15.058ZM255.454 10.144H256.858L252.646 20.566C252.406 21.166 252.1 21.634 251.728 21.97C251.368 22.318 250.798 22.492 250.018 22.492H248.974V21.304H250.018C250.426 21.304 250.744 21.208 250.972 21.016C251.2 20.824 251.38 20.542 251.512 20.17L251.926 19.036L248.326 10.144H249.802L252.88 18.244H252.358L255.454 10.144ZM257.822 19V17.812H258.56C258.836 17.812 259.046 17.728 259.19 17.56C259.334 17.38 259.424 17.068 259.46 16.624L259.982 10.144H265.976V19H264.59V11.098L264.806 11.314H261.044L261.278 11.098L260.774 16.822C260.702 17.626 260.504 18.19 260.18 18.514C259.868 18.838 259.382 19 258.722 19H257.822ZM272.908 19.288C272.056 19.288 271.294 19.084 270.622 18.676C269.95 18.268 269.422 17.71 269.038 17.002C268.666 16.294 268.48 15.484 268.48 14.572C268.48 13.66 268.666 12.85 269.038 12.142C269.422 11.434 269.95 10.876 270.622 10.468C271.294 10.06 272.056 9.856 272.908 9.856C273.772 9.856 274.54 10.06 275.212 10.468C275.884 10.876 276.406 11.434 276.778 12.142C277.162 12.85 277.354 13.66 277.354 14.572C277.354 15.484 277.162 16.294 276.778 17.002C276.406 17.71 275.884 18.268 275.212 18.676C274.54 19.084 273.772 19.288 272.908 19.288ZM272.908 18.082C273.508 18.082 274.03 17.932 274.474 17.632C274.918 17.332 275.266 16.918 275.518 16.39C275.77 15.862 275.896 15.256 275.896 14.572C275.896 13.876 275.77 13.27 275.518 12.754C275.266 12.226 274.918 11.812 274.474 11.512C274.03 11.212 273.508 11.062 272.908 11.062C272.32 11.062 271.804 11.212 271.36 11.512C270.916 11.812 270.568 12.226 270.316 12.754C270.064 13.27 269.938 13.876 269.938 14.572C269.938 15.256 270.064 15.862 270.316 16.39C270.568 16.918 270.916 17.332 271.36 17.632C271.804 17.932 272.32 18.082 272.908 18.082ZM279.848 19V10.144H281.234V19H279.848ZM285.464 19L280.64 14.392H280.838L285.158 10.144H286.994L282.35 14.662L281.972 13.906L287.408 19H285.464ZM289.526 21.556H288.608C289.28 20.632 289.616 19.72 289.616 18.82L289.778 19.216C289.478 19.216 289.226 19.114 289.022 18.91C288.818 18.706 288.716 18.454 288.716 18.154C288.716 17.854 288.812 17.602 289.004 17.398C289.208 17.194 289.46 17.092 289.76 17.092C290.072 17.092 290.324 17.2 290.516 17.416C290.708 17.632 290.804 17.896 290.804 18.208C290.804 18.76 290.684 19.342 290.444 19.954C290.204 20.578 289.898 21.112 289.526 21.556ZM296.2 21.286V17.83H296.938C297.142 17.83 297.298 17.776 297.406 17.668C297.526 17.56 297.622 17.374 297.694 17.11C297.766 16.846 297.826 16.492 297.874 16.048L298.522 10.144H304.354V18.28H302.968V10.864L303.418 11.314H299.332L299.836 10.864L299.206 16.156C299.074 17.188 298.834 17.866 298.486 18.19L298.306 17.83H305.488V21.286H304.174V18.55L304.624 19H297.064L297.514 18.55V21.286H296.2ZM308.481 19.216C308.181 19.216 307.929 19.114 307.725 18.91C307.533 18.706 307.437 18.454 307.437 18.154C307.437 17.854 307.533 17.602 307.725 17.398C307.929 17.194 308.181 17.092 308.481 17.092C308.781 17.092 309.027 17.194 309.219 17.398C309.423 17.602 309.525 17.854 309.525 18.154C309.525 18.454 309.423 18.706 309.219 18.91C309.027 19.114 308.781 19.216 308.481 19.216ZM319.367 6.13H320.753V19H319.313V7.678L316.235 10.27V8.722L319.367 6.13ZM332.21 19H330.806V15.796H324.182V14.59L330.806 6.13H332.21V14.59H334.064V15.796H332.21V19ZM330.806 7.93L325.658 14.59H330.806V7.93Z" fill="#A3887B"/>
</svg>
