<svg width="422" height="59" viewBox="0 0 422 59" fill="none" xmlns="http://www.w3.org/2000/svg">
<mask id="path-1-inside-1_9412_392" fill="white">
<path d="M421.407 3.13744C357.067 38.8022 284.716 57.5268 211.151 57.5525C137.587 57.5781 65.2234 38.904 0.857666 3.28424L1.27794 2.52479C65.515 38.0733 137.734 56.7101 211.151 56.6845C284.568 56.6589 356.774 37.9717 420.987 2.37829L421.407 3.13744Z"/>
</mask>
<path d="M421.407 3.13744C357.067 38.8022 284.716 57.5268 211.151 57.5525C137.587 57.5781 65.2234 38.904 0.857666 3.28424L1.27794 2.52479C65.515 38.0733 137.734 56.7101 211.151 56.6845C284.568 56.6589 356.774 37.9717 420.987 2.37829L421.407 3.13744Z" stroke="#A3887B" stroke-width="2" mask="url(#path-1-inside-1_9412_392)"/>
<path d="M222.523 21.9427H224.828C225.475 21.9427 226 22.4887 226 23.1622C226 23.8358 225.475 24.3818 224.828 24.3818H222.523C221.876 24.3818 221.352 23.8358 221.352 23.1622C221.352 22.4887 221.876 21.9427 222.523 21.9427ZM197.172 24.3818H199.477C200.124 24.3818 200.648 23.8358 200.648 23.1622C200.648 22.4887 200.124 21.9427 199.477 21.9427H197.172C196.525 21.9427 196 22.4887 196 23.1622C196 23.8358 196.525 24.3818 197.172 24.3818ZM211 12.3899C211.647 12.3899 212.172 11.8439 212.172 11.1704V8.772C212.172 8.09847 211.647 7.55249 211 7.55249C210.353 7.55249 209.828 8.09847 209.828 8.772V11.1704C209.828 11.8439 210.353 12.3899 211 12.3899ZM202.023 15.5451C202.481 16.0212 203.223 16.0213 203.68 15.5451C204.138 15.0688 204.138 14.2966 203.68 13.8204L202.051 12.1244C201.593 11.6482 200.851 11.6482 200.393 12.1244C199.936 12.6007 199.936 13.3729 200.393 13.8491L202.023 15.5451ZM219.977 15.5451L221.607 13.8491C222.064 13.3729 222.064 12.6007 221.607 12.1244C221.149 11.6482 220.407 11.6482 219.949 12.1244L218.32 13.8204C217.862 14.2966 217.862 15.0688 218.32 15.5451C218.777 16.0212 219.519 16.0213 219.977 15.5451ZM226 30.3574C226 31.0309 225.475 31.5769 224.828 31.5769H197.172C196.525 31.5769 196 31.0309 196 30.3574C196 29.6838 196.525 29.1379 197.172 29.1379H205.299C203.821 27.6107 202.904 25.4958 202.904 23.1622C202.904 18.5168 206.536 14.7374 211 14.7374C215.464 14.7374 219.096 18.5168 219.096 23.1622C219.096 25.4958 218.179 27.6107 216.701 29.1379H224.828C225.475 29.1379 226 29.6838 226 30.3574ZM210.669 29.1379H211.332C214.35 28.9585 216.752 26.347 216.752 23.1622C216.752 19.8616 214.172 17.1765 211 17.1765C207.828 17.1765 205.248 19.8616 205.248 23.1622C205.248 26.347 207.651 28.9585 210.669 29.1379ZM220.219 35.1135H201.781C201.134 35.1135 200.609 35.6594 200.609 36.333C200.609 37.0065 201.134 37.5525 201.781 37.5525H220.219C220.866 37.5525 221.391 37.0065 221.391 36.333C221.391 35.6594 220.866 35.1135 220.219 35.1135Z" fill="#A3887B"/>
</svg>
