<svg width="422" height="57" viewBox="0 0 422 57" fill="none" xmlns="http://www.w3.org/2000/svg">
<path d="M203.929 27.1613L202.161 25.3938C201.674 24.9056 200.881 24.9056 200.394 25.3938C199.906 25.8819 199.906 26.6731 200.394 27.1613L202.161 28.9288C202.277 29.0451 202.415 29.1374 202.567 29.2002C202.718 29.2631 202.881 29.2953 203.045 29.295C203.365 29.295 203.685 29.1731 203.929 28.9288C204.417 28.4406 204.417 27.6494 203.929 27.1613ZM199.75 34.75H197.25C196.56 34.75 196 35.31 196 36C196 36.69 196.56 37.25 197.25 37.25H199.75C200.44 37.25 201 36.69 201 36C201 35.31 200.44 34.75 199.75 34.75ZM203.929 43.0712C203.441 42.5831 202.649 42.5831 202.161 43.0712L200.394 44.8387C199.906 45.3269 199.906 46.1181 200.394 46.6063C200.638 46.8506 200.957 46.9725 201.278 46.9725C201.598 46.9725 201.918 46.8506 202.161 46.6063L203.929 44.8387C204.417 44.3506 204.417 43.5594 203.929 43.0712ZM211 46C210.31 46 209.75 46.56 209.75 47.25V49.75C209.75 50.44 210.31 51 211 51C211.69 51 212.25 50.44 212.25 49.75V47.25C212.25 46.56 211.69 46 211 46ZM221.606 44.8387L219.839 43.0712C219.351 42.5831 218.559 42.5831 218.071 43.0712C217.583 43.5594 217.583 44.3506 218.071 44.8387L219.839 46.6063C220.082 46.8506 220.403 46.9725 220.722 46.9725C221.042 46.9725 221.363 46.8506 221.606 46.6063C222.094 46.1181 222.094 45.3269 221.606 44.8387ZM224.75 34.75H222.25C221.56 34.75 221 35.31 221 36C221 36.69 221.56 37.25 222.25 37.25H224.75C225.44 37.25 226 36.69 226 36C226 35.31 225.44 34.75 224.75 34.75ZM221.606 25.3938C221.119 24.9056 220.326 24.9056 219.839 25.3938L218.071 27.1613C217.583 27.6494 217.583 28.4406 218.071 28.9288C218.315 29.1731 218.635 29.295 218.955 29.295C219.275 29.295 219.595 29.1731 219.839 28.9288L221.606 27.1613C222.094 26.6731 222.094 25.8819 221.606 25.3938ZM211 21C210.31 21 209.75 21.56 209.75 22.25V24.75C209.75 25.44 210.31 26 211 26C211.69 26 212.25 25.44 212.25 24.75V22.25C212.25 21.56 211.69 21 211 21ZM211 27.875C206.52 27.875 202.875 31.52 202.875 36C202.875 40.48 206.52 44.125 211 44.125C215.48 44.125 219.125 40.48 219.125 36C219.125 31.52 215.48 27.875 211 27.875ZM211 41.625C207.899 41.625 205.375 39.1012 205.375 36C205.375 32.8988 207.899 30.375 211 30.375C214.101 30.375 216.625 32.8988 216.625 36C216.625 39.1012 214.101 41.625 211 41.625Z" fill="#A3887B"/>
<mask id="path-2-inside-1_9412_397" fill="white">
<path d="M0.592651 55.415C64.9335 19.7503 137.284 1.0257 210.849 1.00003C284.413 0.974348 356.777 19.6485 421.142 55.2683L420.722 56.0277C356.485 20.4791 284.266 1.84238 210.849 1.86801C137.432 1.89363 65.2256 20.5808 1.01343 56.1742L0.592651 55.415Z"/>
</mask>
<path d="M0.592651 55.415C64.9335 19.7503 137.284 1.0257 210.849 1.00003C284.413 0.974348 356.777 19.6485 421.142 55.2683L420.722 56.0277C356.485 20.4791 284.266 1.84238 210.849 1.86801C137.432 1.89363 65.2256 20.5808 1.01343 56.1742L0.592651 55.415Z" stroke="#A3887B" stroke-width="2" mask="url(#path-2-inside-1_9412_397)"/>
</svg>
