<svg width="422" height="56" viewBox="0 0 422 56" fill="none" xmlns="http://www.w3.org/2000/svg">
<mask id="path-1-inside-1_31_1232" fill="white">
<path d="M421.407 1.13744C357.067 36.8022 284.716 55.5268 211.151 55.5525C137.587 55.5781 65.2234 36.904 0.857666 1.28424L1.27794 0.524792C65.515 36.0733 137.734 54.7101 211.151 54.6845C284.568 54.6589 356.774 35.9717 420.987 0.378288L421.407 1.13744Z"/>
</mask>
<path d="M421.407 1.13744C357.067 36.8022 284.716 55.5268 211.151 55.5525C137.587 55.5781 65.2234 36.904 0.857666 1.28424L1.27794 0.524792C65.515 36.0733 137.734 54.7101 211.151 54.6845C284.568 54.6589 356.774 35.9717 420.987 0.378288L421.407 1.13744Z" stroke="#A3887B" stroke-width="2" mask="url(#path-1-inside-1_31_1232)"/>
</svg>
