<svg width="422" height="56" viewBox="0 0 422 56" fill="none" xmlns="http://www.w3.org/2000/svg">
<mask id="path-1-inside-1_9412_395" fill="white">
<path d="M0.592651 54.415C64.9335 18.7503 137.284 0.0257046 210.849 2.64394e-05C284.413 -0.0256517 356.777 18.6485 421.142 54.2683L420.722 55.0277C356.485 19.4791 284.266 0.842381 210.849 0.868007C137.432 0.893634 65.2256 19.5808 1.01343 55.1742L0.592651 54.415Z"/>
</mask>
<path d="M0.592651 54.415C64.9335 18.7503 137.284 0.0257046 210.849 2.64394e-05C284.413 -0.0256517 356.777 18.6485 421.142 54.2683L420.722 55.0277C356.485 19.4791 284.266 0.842381 210.849 0.868007C137.432 0.893634 65.2256 19.5808 1.01343 55.1742L0.592651 54.415Z" stroke="#A3887B" stroke-width="2" mask="url(#path-1-inside-1_9412_395)"/>
</svg>
