<svg width="38" height="40" viewBox="0 0 38 40" fill="none" xmlns="http://www.w3.org/2000/svg">
<path fill-rule="evenodd" clip-rule="evenodd" d="M19.25 0C19.5815 0 19.8995 0.131696 20.1339 0.366117C20.3683 0.600537 20.5 0.918479 20.5 1.25C20.5 2.92 20.1775 3.8925 19.34 5.2325C18.4925 6.4725 17.935 7.3825 18 8.75C17.965 9.9925 18.34 10.79 19.0425 11.8175C20.1025 13.4175 20.5 14.4125 20.5 16.25C20.5 17.91 20.175 18.875 19.3375 20.1825C18.4875 21.3975 17.9375 22.28 18 23.645C17.965 24.8825 18.3425 25.7025 19.0425 26.745C20.1025 28.38 20.5 29.3875 20.5 31.25C20.5 31.5815 20.3683 31.8995 20.1339 32.1339C19.8995 32.3683 19.5815 32.5 19.25 32.5C18.9185 32.5 18.6005 32.3683 18.3661 32.1339C18.1317 31.8995 18 31.5815 18 31.25C18.035 29.995 17.655 29.1725 16.9525 28.12C15.895 26.4925 15.5025 25.49 15.5025 23.645C15.5025 21.97 15.8275 20.995 16.6675 19.6825C17.51 18.475 18.0675 17.595 18 16.25C18.035 15.025 17.6625 14.23 16.965 13.2125C15.9 11.6075 15.5 10.605 15.5 8.75C15.5 7.08 15.825 6.1075 16.66 4.7675C17.505 3.5275 18.065 2.615 18 1.25C18 0.918479 18.1317 0.600537 18.3661 0.366117C18.6005 0.131696 18.9185 0 19.25 0ZM4.25 0C4.58152 0 4.89946 0.131696 5.13388 0.366117C5.3683 0.600537 5.5 0.918479 5.5 1.25C5.5 2.92 5.1775 3.8925 4.34 5.2325C3.4925 6.4725 2.935 7.3825 3 8.75C2.965 9.9925 3.34 10.79 4.0425 11.8175C5.1025 13.4175 5.5 14.4125 5.5 16.25C5.5 17.91 5.175 18.875 4.3375 20.1825C3.4875 21.3975 2.9375 22.28 3 23.645C2.965 24.8825 3.3425 25.7025 4.0425 26.745C5.1025 28.38 5.5 29.3875 5.5 31.25C5.5 31.5815 5.3683 31.8995 5.13388 32.1339C4.89946 32.3683 4.58152 32.5 4.25 32.5C3.91848 32.5 3.60054 32.3683 3.36612 32.1339C3.1317 31.8995 3 31.5815 3 31.25C3.035 29.995 2.655 29.1725 1.9525 28.12C0.895 26.4925 0.5025 25.49 0.5025 23.645C0.5025 21.97 0.827499 20.995 1.6675 19.6825C2.51 18.475 3.0675 17.595 3 16.25C3.035 15.025 2.6625 14.23 1.965 13.2125C0.899999 11.6075 0.5 10.605 0.5 8.75C0.5 7.08 0.825 6.1075 1.66 4.7675C2.505 3.5275 3.065 2.615 3 1.25C3 0.918479 3.1317 0.600537 3.36612 0.366117C3.60054 0.131696 3.91848 0 4.25 0ZM34.25 0C34.5815 0 34.8995 0.131696 35.1339 0.366117C35.3683 0.600537 35.5 0.918479 35.5 1.25C35.5 2.92 35.1775 3.8925 34.34 5.2325C33.4925 6.4725 32.935 7.3825 33 8.75C32.965 9.9925 33.34 10.79 34.0425 11.8175C35.1025 13.4175 35.5 14.4125 35.5 16.25C35.5 17.91 35.175 18.875 34.3375 20.1825C33.4875 21.3975 32.9375 22.28 33 23.645C32.965 24.8825 33.3425 25.7025 34.0425 26.745C35.1025 28.38 35.5 29.3875 35.5 31.25C35.5 31.5815 35.3683 31.8995 35.1339 32.1339C34.8995 32.3683 34.5815 32.5 34.25 32.5C33.9185 32.5 33.6005 32.3683 33.3661 32.1339C33.1317 31.8995 33 31.5815 33 31.25C33.035 29.995 32.655 29.1725 31.9525 28.12C30.895 26.4925 30.5025 25.49 30.5025 23.645C30.5025 21.97 30.8275 20.995 31.6675 19.6825C32.51 18.475 33.0675 17.595 33 16.25C33.035 15.025 32.6625 14.23 31.965 13.2125C30.9 11.6075 30.5 10.605 30.5 8.75C30.5 7.08 30.825 6.1075 31.66 4.7675C32.505 3.5275 33.065 2.615 33 1.25C33 0.918479 33.1317 0.600537 33.3661 0.366117C33.6005 0.131696 33.9185 0 34.25 0ZM36.75 37.5C37.0815 37.5 37.3995 37.6317 37.6339 37.8661C37.8683 38.1005 38 38.4185 38 38.75C38 39.0815 37.8683 39.3995 37.6339 39.6339C37.3995 39.8683 37.0815 40 36.75 40H1.75C1.41848 40 1.10054 39.8683 0.866116 39.6339C0.631696 39.3995 0.5 39.0815 0.5 38.75C0.5 38.4185 0.631696 38.1005 0.866116 37.8661C1.10054 37.6317 1.41848 37.5 1.75 37.5H36.75Z" fill="#A3887B"/>
</svg>
