<svg width="49" height="48" viewBox="0 0 49 48" fill="none" xmlns="http://www.w3.org/2000/svg">
<path d="M6.83297 1.43593C7.56234 0.229365 9.31266 0.229365 10.042 1.43593L15.3333 10.1875C15.4192 10.3297 15.4657 10.4921 15.4682 10.6582C15.4707 10.8243 15.429 10.988 15.3474 11.1327C15.2658 11.2774 15.1472 11.3978 15.0038 11.4816C14.8604 11.5654 14.6973 11.6096 14.5312 11.6097H11.7188V15.3597C11.7188 15.6083 11.62 15.8468 11.4442 16.0226C11.2683 16.1984 11.0299 16.2972 10.7812 16.2972C10.5326 16.2972 10.2942 16.1984 10.1183 16.0226C9.94252 15.8468 9.84375 15.6083 9.84375 15.3597V10.6722C9.84375 10.4235 9.94252 10.1851 10.1183 10.0093C10.2942 9.83345 10.5326 9.73468 10.7812 9.73468H12.8691L8.4375 2.40577L4.00594 9.73468H6.32812C6.57677 9.73468 6.81522 9.83345 6.99104 10.0093C7.16685 10.1851 7.26562 10.4235 7.26562 10.6722V19.5784C7.26562 19.8271 7.16685 20.0655 6.99104 20.2413C6.81522 20.4172 6.57677 20.5159 6.32812 20.5159C6.07948 20.5159 5.84103 20.4172 5.66521 20.2413C5.4894 20.0655 5.39062 19.8271 5.39062 19.5784V11.6097H2.34375C2.17754 11.6097 2.01431 11.5656 1.87078 11.4818C1.72724 11.398 1.60856 11.2775 1.5269 11.1328C1.44525 10.988 1.40354 10.8241 1.40606 10.658C1.40858 10.4918 1.45524 10.3292 1.54125 10.187L6.83297 1.43593ZM25.5108 1.43593C24.7814 0.229365 23.0311 0.229365 22.3017 1.43593L17.0109 10.1875C16.9251 10.3296 16.8785 10.492 16.876 10.6581C16.8735 10.8241 16.9152 10.9878 16.9967 11.1325C17.0782 11.2772 17.1967 11.3976 17.3401 11.4814C17.4834 11.5652 17.6464 11.6095 17.8125 11.6097H20.8594V19.5784C20.8594 19.8271 20.9581 20.0655 21.134 20.2413C21.3098 20.4172 21.5482 20.5159 21.7969 20.5159C22.0455 20.5159 22.284 20.4172 22.4598 20.2413C22.6356 20.0655 22.7344 19.8271 22.7344 19.5784V10.6722C22.7344 10.4235 22.6356 10.1851 22.4598 10.0093C22.284 9.83345 22.0455 9.73468 21.7969 9.73468H19.4747L23.9062 2.40577L28.3378 9.73468H26.25C26.0014 9.73468 25.7629 9.83345 25.5871 10.0093C25.4113 10.1851 25.3125 10.4235 25.3125 10.6722V15.3597C25.3125 15.6083 25.4113 15.8468 25.5871 16.0226C25.7629 16.1984 26.0014 16.2972 26.25 16.2972C26.4986 16.2972 26.7371 16.1984 26.9129 16.0226C27.0887 15.8468 27.1875 15.6083 27.1875 15.3597V11.6097H30C30.1662 11.6096 30.3293 11.5655 30.4728 11.4816C30.6163 11.3978 30.7349 11.2773 30.8165 11.1326C30.8981 10.9878 30.9398 10.824 30.9372 10.6578C30.9347 10.4917 30.888 10.3292 30.802 10.187L25.5108 1.43593ZM40.9795 1.43593C40.2502 0.229365 38.4998 0.229365 37.7705 1.43593L32.4797 10.1875C32.3938 10.3296 32.3473 10.492 32.3448 10.6581C32.3423 10.8241 32.3839 10.9878 32.4655 11.1325C32.547 11.2772 32.6655 11.3976 32.8088 11.4814C32.9522 11.5652 33.1152 11.6095 33.2812 11.6097H36.3281V19.5784C36.3281 19.8271 36.4269 20.0655 36.6027 20.2413C36.7785 20.4172 37.017 20.5159 37.2656 20.5159C37.5143 20.5159 37.7527 20.4172 37.9285 20.2413C38.1044 20.0655 38.2031 19.8271 38.2031 19.5784V10.6722C38.2031 10.4235 38.1044 10.1851 37.9285 10.0093C37.7527 9.83345 37.5143 9.73468 37.2656 9.73468H34.9434L39.375 2.40577L43.8066 9.73468H41.7188C41.4701 9.73468 41.2317 9.83345 41.0558 10.0093C40.88 10.1851 40.7812 10.4235 40.7812 10.6722V15.3597C40.7812 15.6083 40.88 15.8468 41.0558 16.0226C41.2317 16.1984 41.4701 16.2972 41.7188 16.2972C41.9674 16.2972 42.2058 16.1984 42.3817 16.0226C42.5575 15.8468 42.6562 15.6083 42.6562 15.3597V11.6097H45.4688C45.635 11.6098 45.7982 11.5657 45.9418 11.4819C46.0854 11.3981 46.204 11.2776 46.2857 11.1328C46.3673 10.988 46.4089 10.8241 46.4063 10.6579C46.4037 10.4917 46.3569 10.3292 46.2708 10.187L40.9795 1.43593ZM6.44531 23.3284C2.88563 23.3284 0 26.2141 0 29.7737C0 33.3334 2.88563 36.2191 6.44531 36.2191H42.1875C44.7764 36.2191 46.875 38.3176 46.875 40.9066C46.875 43.4955 44.7764 45.5941 42.1875 45.5941H0.9375C0.68886 45.5941 0.450403 45.6928 0.274588 45.8686C0.0987722 46.0445 0 46.2829 0 46.5316C0 46.7802 0.0987722 47.0187 0.274588 47.1945C0.450403 47.3703 0.68886 47.4691 0.9375 47.4691H42.1875C45.8119 47.4691 48.75 44.5309 48.75 40.9066C48.75 37.2822 45.8119 34.3441 42.1875 34.3441H6.44531C3.92109 34.3441 1.875 32.298 1.875 29.7737C1.875 27.2495 3.92109 25.2034 6.44531 25.2034H47.8125C48.0611 25.2034 48.2996 25.1047 48.4754 24.9288C48.6512 24.753 48.75 24.5146 48.75 24.2659C48.75 24.0173 48.6512 23.7788 48.4754 23.603C48.2996 23.4272 48.0611 23.3284 47.8125 23.3284H6.44531Z" fill="#A3887B"/>
</svg>
