<svg width="60" height="44" viewBox="0 0 60 44" fill="none" xmlns="http://www.w3.org/2000/svg">
<path d="M58.9453 0.244873H1.05469C0.774967 0.244873 0.506703 0.355991 0.308911 0.553783C0.111119 0.751575 0 1.01984 0 1.29956L0 7.30214C0 10.1903 1.7448 12.6775 4.23516 13.7687V17.9905C4.23516 24.8452 6.92274 31.3079 11.8027 36.1878C16.6826 41.0677 23.1452 43.7553 30 43.7553C36.8548 43.7553 43.3174 41.0677 48.1973 36.1878C53.0773 31.3079 55.7648 24.8452 55.7648 17.9905V13.7687C58.2551 12.6776 60 10.1905 60 7.30214V1.29956C60 1.01984 59.8889 0.751575 59.6911 0.553783C59.4933 0.355991 59.225 0.244873 58.9453 0.244873ZM53.6555 17.9905C53.6555 31.0342 43.0437 41.6459 30 41.6459C16.9563 41.6459 6.34453 31.0342 6.34453 17.9905V14.3233C6.57891 14.3469 6.81668 14.3592 7.05727 14.3592H52.943C53.1836 14.3592 53.4212 14.3469 53.6557 14.3233V17.9905H53.6555ZM57.8906 7.30214C57.8906 10.0303 55.6711 12.2499 52.9429 12.2499H7.05715C4.32891 12.2499 2.10938 10.0303 2.10938 7.30214V2.35425H57.8906V7.30214ZM30 22.2636C25.0931 22.2636 21.1011 26.2556 21.1011 31.1626C21.1011 36.0693 25.0931 40.0614 30 40.0614C34.9069 40.0614 38.8989 36.0694 38.8989 31.1626C38.8989 26.2556 34.9069 22.2636 30 22.2636ZM30 37.9519C26.2562 37.9519 23.2105 34.9062 23.2105 31.1624C23.2105 27.4187 26.2562 24.3728 30 24.3728C33.7437 24.3728 36.7895 27.4185 36.7895 31.1624C36.7895 34.9062 33.7438 37.9519 30 37.9519ZM30 26.3729C27.3591 26.3729 25.2104 28.5214 25.2104 31.1623C25.2104 33.8033 27.3589 35.9519 30 35.9519C32.6409 35.9519 34.7895 33.8033 34.7895 31.1623C34.7895 28.5214 32.6409 26.3729 30 26.3729ZM30 33.8426C28.5221 33.8426 27.3198 32.6403 27.3198 31.1624C27.3198 29.6847 28.5221 28.4824 30 28.4824C31.4779 28.4824 32.6801 29.6847 32.6801 31.1624C32.6802 32.6403 31.4779 33.8426 30 33.8426ZM45.9982 17.2391C44.1111 17.2391 42.5759 18.7743 42.5759 20.6614C42.5759 22.5485 44.1111 24.0837 45.9982 24.0837C47.8854 24.0837 49.4207 22.5485 49.4207 20.6614C49.4207 18.7743 47.8853 17.2391 45.9982 17.2391ZM45.9982 21.9744C45.2742 21.9744 44.6852 21.3854 44.6852 20.6614C44.6852 19.9374 45.2742 19.3484 45.9982 19.3484C46.7222 19.3484 47.3113 19.9374 47.3113 20.6614C47.3113 21.3854 46.7222 21.9744 45.9982 21.9744Z" fill="#A3887B"/>
</svg>
