<svg width="58" height="40" viewBox="0 0 58 40" fill="none" xmlns="http://www.w3.org/2000/svg">
<path fill-rule="evenodd" clip-rule="evenodd" d="M41.2168 7.47129C41.2168 7.68885 41.1303 7.8975 40.9765 8.05134C40.8227 8.20518 40.614 8.2916 40.3964 8.2916H17.493C17.2754 8.2916 17.0668 8.20518 16.9129 8.05134C16.7591 7.8975 16.6727 7.68885 16.6727 7.47129C16.6727 7.25373 16.7591 7.04508 16.9129 6.89124C17.0668 6.7374 17.2754 6.65098 17.493 6.65098H40.3963C40.5041 6.65096 40.6107 6.67217 40.7103 6.71339C40.8098 6.7546 40.9003 6.81502 40.9765 6.8912C41.0526 6.96737 41.1131 7.05781 41.1543 7.15734C41.1955 7.25687 41.2168 7.36355 41.2168 7.47129ZM57.4091 22.4898C57.2406 24.7785 55.4896 26.5045 53.3364 26.5045H4.55289C2.39957 26.5045 0.648671 24.7785 0.479921 22.4897C-0.162735 13.7916 -0.16004 7.63242 0.488476 3.66012C0.75039 2.05441 1.87797 0.975586 3.29441 0.975586H54.5946C56.0109 0.975586 57.1386 2.05441 57.4006 3.66012C58.0492 7.63242 58.052 13.7916 57.4091 22.4898ZM50.0091 20.235C50.0091 19.6696 49.5491 19.2096 48.9837 19.2096H8.90559C8.34016 19.2096 7.8802 19.6696 7.8802 20.235V24.8639H50.0091V20.235ZM55.7816 3.92449C55.6831 3.32098 55.3131 2.61621 54.5948 2.61621H3.29453C2.57605 2.61621 2.20621 3.32098 2.10766 3.92438C1.48023 7.76777 1.48305 13.8009 2.11621 22.369C2.22262 23.8147 3.24742 24.8639 4.55289 24.8639H6.23957V20.235C6.23957 18.765 7.43559 17.569 8.90559 17.569H48.9837C50.4537 17.569 51.6497 18.765 51.6497 20.235V24.8639H53.3365C54.6419 24.8639 55.6667 23.8147 55.7731 22.3691C56.4062 13.8011 56.4091 7.76777 55.7816 3.92449ZM28.9446 30.2545C28.7271 30.2545 28.5184 30.341 28.3646 30.4948C28.2108 30.6486 28.1243 30.8573 28.1243 31.0748V38.2042C28.1243 38.4217 28.2108 38.6304 28.3646 38.7842C28.5184 38.9381 28.7271 39.0245 28.9446 39.0245C29.1622 39.0245 29.3709 38.9381 29.5247 38.7842C29.6785 38.6304 29.765 38.4217 29.765 38.2042V31.0748C29.765 30.8573 29.6785 30.6486 29.5247 30.4948C29.3709 30.341 29.1622 30.2545 28.9446 30.2545ZM21.8986 30.2552C21.6813 30.2642 21.4763 30.3591 21.3289 30.5191C21.1815 30.6791 21.1037 30.8911 21.1127 31.1085C21.2145 33.5914 20.5089 35.9937 19.1766 37.6992C19.082 37.8203 19.0233 37.9655 19.0072 38.1184C18.9912 38.2712 19.0183 38.4254 19.0857 38.5636C19.153 38.7017 19.2578 38.8181 19.388 38.8996C19.5183 38.9811 19.6689 39.0243 19.8225 39.0244C19.9473 39.0246 20.0704 38.9963 20.1825 38.9416C20.2947 38.887 20.3928 38.8074 20.4695 38.709C22.0376 36.7016 22.8694 33.9068 22.7519 31.0411C22.7334 30.5885 22.3505 30.2373 21.8986 30.2552ZM14.5565 30.2557C14.1047 30.2311 13.7181 30.5798 13.6947 31.0322C13.5652 33.5175 12.6357 35.871 11.1446 37.4893C11.0366 37.6065 10.965 37.7526 10.9387 37.9098C10.9124 38.067 10.9324 38.2285 10.9964 38.3745C11.0603 38.5204 11.1654 38.6446 11.2988 38.7318C11.4322 38.8191 11.5881 38.8655 11.7475 38.8656C11.9688 38.8656 12.1893 38.7766 12.3509 38.6011C14.0969 36.7063 15.1839 33.9788 15.3328 31.1177C15.3385 31.0102 15.3229 30.9025 15.2869 30.801C15.2509 30.6994 15.1953 30.606 15.1232 30.5259C15.0511 30.4459 14.964 30.3808 14.8667 30.3345C14.7695 30.2881 14.6641 30.2613 14.5565 30.2557ZM36.7768 31.1085C36.7844 30.8919 36.706 30.681 36.5587 30.522C36.4114 30.363 36.2072 30.2688 35.9906 30.2599C35.774 30.251 35.5627 30.3282 35.4029 30.4746C35.2431 30.621 35.1477 30.8247 35.1375 31.0412C35.0199 33.9067 35.8519 36.7016 37.42 38.7091C37.4967 38.8075 37.5948 38.8871 37.707 38.9417C37.8191 38.9964 37.9422 39.0247 38.067 39.0245C38.2207 39.0244 38.3712 38.9812 38.5015 38.8997C38.6318 38.8182 38.7365 38.7018 38.8039 38.5637C38.8712 38.4256 38.8984 38.2713 38.8823 38.1185C38.8662 37.9657 38.8075 37.8204 38.7129 37.6993C37.3805 35.9936 36.6749 33.5913 36.7768 31.1085ZM44.1948 31.0322C44.1713 30.5797 43.785 30.2312 43.333 30.2557C43.1158 30.267 42.912 30.3642 42.7663 30.5258C42.6207 30.6874 42.5453 30.9003 42.5566 31.1175C42.7056 33.9785 43.7927 36.7061 45.5385 38.6009C45.6153 38.6844 45.7085 38.751 45.8124 38.7965C45.9163 38.8421 46.0285 38.8655 46.1419 38.8654C46.3479 38.8656 46.5463 38.7881 46.6975 38.6482C46.8575 38.5008 46.9523 38.2958 46.9612 38.0785C46.9701 37.8611 46.8923 37.6491 46.7448 37.4891C45.254 35.8711 44.3245 33.5175 44.1948 31.0322ZM48.8339 6.35789C48.2208 6.35789 47.7207 6.85805 47.7207 7.47117C47.7207 8.08441 48.2208 8.58445 48.8339 8.58445C49.4472 8.58445 49.9472 8.0843 49.9472 7.47117C49.9472 6.85805 49.4472 6.35789 48.8339 6.35789Z" fill="#A3887B"/>
</svg>
