<svg width="42" height="60" viewBox="0 0 42 60" fill="none" xmlns="http://www.w3.org/2000/svg">
<path d="M38.4309 0H4.31906C3.37287 0.00124026 2.46578 0.377664 1.79672 1.04672C1.12766 1.71578 0.75124 2.62287 0.75 3.56906V56.4309C0.75124 57.3771 1.12766 58.2842 1.79672 58.9533C2.46578 59.6223 3.37287 59.9988 4.31906 60H38.4309C39.3771 59.9988 40.2842 59.6223 40.9533 58.9533C41.6223 58.2842 41.9988 57.3771 42 56.4309V3.56906C41.9988 2.62287 41.6223 1.71578 40.9533 1.04672C40.2842 0.377664 39.3771 0.00124026 38.4309 0ZM40.125 56.4309C40.1243 56.88 39.9455 57.3105 39.628 57.628C39.3105 57.9455 38.88 58.1243 38.4309 58.125H4.31906C3.87 58.1243 3.43954 57.9455 3.122 57.628C2.80446 57.3105 2.62574 56.88 2.625 56.4309V3.56906C2.62574 3.12 2.80446 2.68954 3.122 2.372C3.43954 2.05446 3.87 1.87574 4.31906 1.875H38.4309C38.88 1.87574 39.3105 2.05446 39.628 2.372C39.9455 2.68954 40.1243 3.12 40.125 3.56906V56.4309Z" fill="#A3887B"/>
<path d="M37.3125 3.75H5.4375C5.18886 3.75 4.9504 3.84877 4.77459 4.02459C4.59877 4.2004 4.5 4.43886 4.5 4.6875V55.3125C4.5 55.5611 4.59877 55.7996 4.77459 55.9754C4.9504 56.1512 5.18886 56.25 5.4375 56.25H37.3125C37.5611 56.25 37.7996 56.1512 37.9754 55.9754C38.1512 55.7996 38.25 55.5611 38.25 55.3125V4.6875C38.25 4.43886 38.1512 4.2004 37.9754 4.02459C37.7996 3.84877 37.5611 3.75 37.3125 3.75ZM36.375 54.375H6.375V5.625H36.375V54.375Z" fill="#A3887B"/>
<path d="M12.2747 37.7747L29.1497 20.8997L30.4753 22.2253L13.6003 39.1003L12.2747 37.7747ZM16.9622 38.7112L25.3997 30.2737L26.7262 31.6003L18.2887 40.0378L16.9622 38.7112ZM15.0872 29.3362L24.4622 19.9612L25.7878 21.2878L16.4128 30.6628L15.0872 29.3362Z" fill="#A3887B"/>
</svg>
