<svg width="60" height="52" viewBox="0 0 60 52" fill="none" xmlns="http://www.w3.org/2000/svg">
<path fill-rule="evenodd" clip-rule="evenodd" d="M59.051 44.6117H52.0211V48.0212C52.0211 50.1301 50.3691 51.7822 48.2601 51.7822C46.2566 51.7822 44.5343 50.0598 44.5343 48.0212V44.6117H15.4657V48.0212C15.4657 50.0598 13.7434 51.7822 11.7047 51.7822C9.63093 51.7822 7.97891 50.1301 7.97891 48.0212V44.6117H5.37786C2.42531 44.6117 0 42.2215 0 39.2338C0 36.3164 2.42531 33.9614 5.37786 33.9614H7.97891V26.9315H5.37786C2.42531 26.9315 0 24.5062 0 21.5537C0 18.566 2.42531 16.1407 5.37786 16.1407H7.97891V9.25141H0.949033C0.421793 9.25141 0 8.82962 0 8.30238C0 7.77514 0.421793 7.35334 0.949033 7.35334H7.97891V3.979C7.97891 1.87004 9.63093 0.218018 11.7047 0.218018C13.7434 0.218018 15.4657 1.94034 15.4657 3.979V7.35334H44.5343V3.979C44.5343 1.94034 46.2566 0.218018 48.2601 0.218018C50.3691 0.218018 52.0211 1.87004 52.0211 3.979V7.35334H54.587C57.5747 7.35334 60 9.77865 60 12.7663C60 15.6486 57.5747 18.0388 54.587 18.0388H52.0211V25.0686H54.587C57.5747 25.0686 60 27.4588 60 30.4465C60 33.4342 57.5747 35.8243 54.587 35.8243H52.0211V42.7488H59.051C59.5782 42.7488 60 43.1706 60 43.6978C60 44.1899 59.5782 44.6117 59.051 44.6117ZM44.5343 42.7488V35.8243H15.4657V42.7488H44.5343ZM44.5343 33.9614V26.9315H15.4657V33.9614H44.5343ZM44.5343 25.0686V18.0388H15.4657V25.0686H44.5343ZM44.5343 16.1407V9.25141H15.4657V16.1407H44.5343ZM52.0211 9.25141V16.1407H54.587C56.5202 16.1407 58.1019 14.5941 58.1019 12.7663C58.1019 10.8331 56.5202 9.25141 54.587 9.25141H52.0211ZM52.0211 26.9315V33.9614H54.587C56.5202 33.9614 58.1019 32.3797 58.1019 30.4465C58.1019 28.5133 56.5202 26.9315 54.587 26.9315H52.0211ZM48.2601 2.08094C47.2759 2.08094 46.3972 2.95967 46.3972 3.979V48.0212C46.3972 49.0054 47.2759 49.8841 48.2601 49.8841C49.3497 49.8841 50.1582 49.0757 50.1582 48.0212V3.979C50.1582 2.88937 49.3497 2.08094 48.2601 2.08094ZM7.97891 42.7488V35.8243H5.37786C3.47979 35.8243 1.86292 37.4061 1.86292 39.2338C1.86292 41.167 3.44464 42.7488 5.37786 42.7488H7.97891ZM7.97891 25.0686V18.0388H5.37786C3.44464 18.0388 1.86292 19.6205 1.86292 21.5537C1.86292 23.4869 3.44464 25.0686 5.37786 25.0686H7.97891ZM11.7047 2.08094C10.6503 2.08094 9.84183 2.88937 9.84183 3.979V48.0212C9.84183 49.0757 10.6503 49.8841 11.7047 49.8841C12.7241 49.8841 13.6028 49.0054 13.6028 48.0212V3.979C13.6028 2.95967 12.7241 2.08094 11.7047 2.08094Z" fill="#A3887B"/>
</svg>
