<svg width="55" height="46" viewBox="0 0 55 46" fill="none" xmlns="http://www.w3.org/2000/svg">
<path d="M0.9375 2.82172H53.4375C53.955 2.82172 54.375 2.40734 54.375 1.89547C54.3744 1.77301 54.3496 1.65188 54.3022 1.53899C54.2547 1.4261 54.1855 1.32368 54.0984 1.23757C54.0113 1.15146 53.9082 1.08335 53.7948 1.03715C53.6814 0.99094 53.56 0.967538 53.4375 0.968279H0.9375C0.42 0.968279 0 1.38265 0 1.89547C0 2.40734 0.42 2.82172 0.9375 2.82172ZM53.4375 4.67609H0.9375C0.42 4.67609 0 5.09047 0 5.60328C0 6.11515 0.42 6.52953 0.9375 6.52953H17.1094V13.5317C17.1094 13.7848 17.1984 14.0342 17.3653 14.2377L24.1406 22.3873V22.9827H21.6516C21.2878 22.9827 20.9438 23.158 20.7328 23.4514C20.5219 23.7448 20.4703 24.1264 20.5913 24.4648L24.2672 30.2548C24.4566 30.6233 24.8428 30.8614 25.2703 30.8614H29.1047C29.5322 30.8614 29.9184 30.6233 30.1078 30.2548L33.6919 24.6514L33.7837 24.4648C33.9056 24.1255 33.8522 23.7467 33.6413 23.4523C33.4303 23.158 33.0881 22.9827 32.7225 22.9827H30.2344V22.3873L37.0134 14.233C37.1766 14.0342 37.2656 13.7858 37.2656 13.5317V6.52953H53.4375C53.955 6.52953 54.375 6.11515 54.375 5.60328C54.3745 5.48074 54.3499 5.35951 54.3025 5.24651C54.2551 5.13352 54.1858 5.03098 54.0987 4.94477C54.0117 4.85856 53.9084 4.79038 53.795 4.74411C53.6815 4.69785 53.56 4.67535 53.4375 4.67609ZM26.0156 6.52953H28.3594V22.9827H26.0156V6.52953ZM18.9844 13.2664V6.52953H24.1406V19.468L18.9844 13.2664ZM31.3556 24.8361L28.6875 29.0089H25.6875L23.0194 24.837H30.2344L31.3556 24.8361ZM35.3906 13.2664L30.2344 19.468V6.53047H35.3906V13.2664ZM22.3847 32.7308C22.2661 32.6992 22.1424 32.6913 22.0207 32.7075C21.899 32.7237 21.7817 32.7637 21.6755 32.8253C21.5693 32.8868 21.4763 32.9687 21.4017 33.0662C21.3271 33.1637 21.2725 33.275 21.2409 33.3936L20.3034 36.9561C20.2673 37.094 20.2636 37.2384 20.2925 37.3781C20.3213 37.5177 20.382 37.6488 20.4699 37.7611C20.5577 37.8734 20.6702 37.9639 20.7988 38.0256C20.9273 38.0873 21.0684 38.1185 21.2109 38.1167C21.6281 38.1167 22.0078 37.8411 22.1184 37.423L23.0559 33.8605C23.0866 33.7421 23.0935 33.6189 23.0763 33.4979C23.0591 33.3769 23.0181 33.2605 22.9557 33.1554C22.8933 33.0503 22.8107 32.9586 22.7127 32.8855C22.6147 32.8125 22.5032 32.7605 22.3847 32.7308ZM34.0716 36.9561L33.1341 33.3936C33.0692 33.1547 32.9127 32.951 32.6986 32.8267C32.4844 32.7024 32.2299 32.6676 31.9903 32.7298C31.8718 32.7596 31.7603 32.8125 31.6623 32.8855C31.5643 32.9586 31.4817 33.0503 31.4193 33.1554C31.3569 33.2605 31.3159 33.3769 31.2987 33.4979C31.2815 33.6189 31.2884 33.7421 31.3191 33.8605L32.2566 37.423C32.3203 37.6626 32.4766 37.8671 32.6911 37.9915C32.9055 38.116 33.1606 38.1502 33.4003 38.0867C33.5189 38.057 33.6304 38.0041 33.7284 37.931C33.8264 37.858 33.909 37.7663 33.9714 37.6612C34.0338 37.5561 34.0747 37.4397 34.0919 37.3186C34.1091 37.1976 34.1022 37.0744 34.0716 36.9561ZM27.1875 32.7008C26.67 32.7008 26.25 33.1152 26.25 33.627V37.1895C26.25 37.7023 26.67 38.1177 27.1875 38.1177C27.705 38.1177 28.125 37.7023 28.125 37.1895V33.627C28.1243 33.5047 28.0994 33.3836 28.0519 33.2708C28.0044 33.1581 27.9351 33.0557 27.8481 32.9697C27.761 32.8837 27.6579 32.8157 27.5445 32.7696C27.4312 32.7234 27.3099 32.7 27.1875 32.7008ZM20.3466 39.672C20.114 39.5859 19.8568 39.5951 19.631 39.6976C19.4052 39.8001 19.2291 39.9877 19.1409 40.2195L17.8078 43.782C17.7653 43.8965 17.7459 44.0182 17.7507 44.1402C17.7555 44.2622 17.7845 44.382 17.8359 44.4928C17.8874 44.6035 17.9603 44.7029 18.0504 44.7853C18.1405 44.8677 18.246 44.9313 18.3609 44.9727C18.5933 45.0593 18.8506 45.0503 19.0764 44.9477C19.3022 44.8451 19.4781 44.6572 19.5656 44.4252L20.8997 40.8627C20.9422 40.7482 20.9616 40.6265 20.9568 40.5045C20.952 40.3825 20.923 40.2627 20.8716 40.1519C20.8201 40.0412 20.7472 39.9418 20.6571 39.8594C20.567 39.777 20.4615 39.7133 20.3466 39.672ZM35.2341 40.2195C35.1465 39.9873 34.9704 39.7992 34.7444 39.6965C34.5184 39.5939 34.2609 39.5851 34.0284 39.672C33.9136 39.7133 33.808 39.777 33.7179 39.8594C33.6278 39.9418 33.5549 40.0412 33.5034 40.1519C33.452 40.2627 33.423 40.3825 33.4182 40.5045C33.4134 40.6265 33.4328 40.7482 33.4753 40.8627L34.8084 44.4252C34.896 44.6572 35.0719 44.8451 35.2977 44.9477C35.5235 45.0503 35.7807 45.0593 36.0131 44.9727C36.128 44.9313 36.2336 44.8677 36.3237 44.7853C36.4138 44.7029 36.4867 44.6035 36.5381 44.4928C36.5896 44.382 36.6185 44.2622 36.6234 44.1402C36.6282 44.0182 36.6088 43.8965 36.5662 43.782L35.2341 40.2195ZM27.1875 39.6139C26.67 39.6139 26.25 40.0283 26.25 40.5411V44.1036C26.25 44.6164 26.67 45.0308 27.1875 45.0308C27.705 45.0308 28.125 44.6164 28.125 44.1036V40.5411C28.1244 40.4186 28.0996 40.2975 28.0522 40.1846C28.0047 40.0717 27.9355 39.9693 27.8484 39.8832C27.7614 39.7971 27.6582 39.729 27.5448 39.6828C27.4314 39.6366 27.31 39.6132 27.1875 39.6139Z" fill="#A3887B"/>
</svg>
