<svg width="60" height="60" viewBox="0 0 60 60" fill="none" xmlns="http://www.w3.org/2000/svg">
<path d="M46.4309 0H12.3191C11.3729 0.00124026 10.4658 0.377664 9.79672 1.04672C9.12766 1.71578 8.75124 2.62287 8.75 3.56906V56.4309C8.75124 57.3771 9.12766 58.2842 9.79672 58.9533C10.4658 59.6223 11.3729 59.9988 12.3191 60H46.4309C47.3771 59.9988 48.2842 59.6223 48.9533 58.9533C49.6223 58.2842 49.9988 57.3771 50 56.4309V3.56906C49.9988 2.62287 49.6223 1.71578 48.9533 1.04672C48.2842 0.377664 47.3771 0.00124026 46.4309 0ZM48.125 56.4309C48.1243 56.88 47.9455 57.3105 47.628 57.628C47.3105 57.9455 46.88 58.1243 46.4309 58.125H12.3191C11.87 58.1243 11.4395 57.9455 11.122 57.628C10.8045 57.3105 10.6257 56.88 10.625 56.4309V3.56906C10.6257 3.12 10.8045 2.68954 11.122 2.372C11.4395 2.05446 11.87 1.87574 12.3191 1.875H46.4309C46.88 1.87574 47.3105 2.05446 47.628 2.372C47.9455 2.68954 48.1243 3.12 48.125 3.56906V56.4309Z" fill="#2D3047"/>
<path d="M45.3125 3.75H13.4375C13.1889 3.75 12.9504 3.84877 12.7746 4.02459C12.5988 4.2004 12.5 4.43886 12.5 4.6875V55.3125C12.5 55.5611 12.5988 55.7996 12.7746 55.9754C12.9504 56.1512 13.1889 56.25 13.4375 56.25H45.3125C45.5611 56.25 45.7996 56.1512 45.9754 55.9754C46.1512 55.7996 46.25 55.5611 46.25 55.3125V4.6875C46.25 4.43886 46.1512 4.2004 45.9754 4.02459C45.7996 3.84877 45.5611 3.75 45.3125 3.75ZM44.375 54.375H14.375V5.625H44.375V54.375Z" fill="#2D3047"/>
<path d="M20.2747 37.7747L37.1497 20.8997L38.4753 22.2254L21.6003 39.1004L20.2747 37.7747ZM24.9622 38.7113L33.3997 30.2738L34.7262 31.6004L26.2887 40.0379L24.9622 38.7113ZM23.0872 29.3363L32.4622 19.9613L33.7878 21.2879L24.4128 30.6629L23.0872 29.3363Z" fill="#2D3047"/>
</svg>
