<svg width="60" height="60" viewBox="0 0 60 60" fill="none" xmlns="http://www.w3.org/2000/svg">
<path fill-rule="evenodd" clip-rule="evenodd" d="M29.25 10C29.5815 10 29.8995 10.1317 30.1339 10.3661C30.3683 10.6005 30.5 10.9185 30.5 11.25C30.5 12.92 30.1775 13.8925 29.34 15.2325C28.4925 16.4725 27.935 17.3825 28 18.75C27.965 19.9925 28.34 20.79 29.0425 21.8175C30.1025 23.4175 30.5 24.4125 30.5 26.25C30.5 27.91 30.175 28.875 29.3375 30.1825C28.4875 31.3975 27.9375 32.28 28 33.645C27.965 34.8825 28.3425 35.7025 29.0425 36.745C30.1025 38.38 30.5 39.3875 30.5 41.25C30.5 41.5815 30.3683 41.8995 30.1339 42.1339C29.8995 42.3683 29.5815 42.5 29.25 42.5C28.9185 42.5 28.6005 42.3683 28.3661 42.1339C28.1317 41.8995 28 41.5815 28 41.25C28.035 39.995 27.655 39.1725 26.9525 38.12C25.895 36.4925 25.5025 35.49 25.5025 33.645C25.5025 31.97 25.8275 30.995 26.6675 29.6825C27.51 28.475 28.0675 27.595 28 26.25C28.035 25.025 27.6625 24.23 26.965 23.2125C25.9 21.6075 25.5 20.605 25.5 18.75C25.5 17.08 25.825 16.1075 26.66 14.7675C27.505 13.5275 28.065 12.615 28 11.25C28 10.9185 28.1317 10.6005 28.3661 10.3661C28.6005 10.1317 28.9185 10 29.25 10ZM14.25 10C14.5815 10 14.8995 10.1317 15.1339 10.3661C15.3683 10.6005 15.5 10.9185 15.5 11.25C15.5 12.92 15.1775 13.8925 14.34 15.2325C13.4925 16.4725 12.935 17.3825 13 18.75C12.965 19.9925 13.34 20.79 14.0425 21.8175C15.1025 23.4175 15.5 24.4125 15.5 26.25C15.5 27.91 15.175 28.875 14.3375 30.1825C13.4875 31.3975 12.9375 32.28 13 33.645C12.965 34.8825 13.3425 35.7025 14.0425 36.745C15.1025 38.38 15.5 39.3875 15.5 41.25C15.5 41.5815 15.3683 41.8995 15.1339 42.1339C14.8995 42.3683 14.5815 42.5 14.25 42.5C13.9185 42.5 13.6005 42.3683 13.3661 42.1339C13.1317 41.8995 13 41.5815 13 41.25C13.035 39.995 12.655 39.1725 11.9525 38.12C10.895 36.4925 10.5025 35.49 10.5025 33.645C10.5025 31.97 10.8275 30.995 11.6675 29.6825C12.51 28.475 13.0675 27.595 13 26.25C13.035 25.025 12.6625 24.23 11.965 23.2125C10.9 21.6075 10.5 20.605 10.5 18.75C10.5 17.08 10.825 16.1075 11.66 14.7675C12.505 13.5275 13.065 12.615 13 11.25C13 10.9185 13.1317 10.6005 13.3661 10.3661C13.6005 10.1317 13.9185 10 14.25 10ZM44.25 10C44.5815 10 44.8995 10.1317 45.1339 10.3661C45.3683 10.6005 45.5 10.9185 45.5 11.25C45.5 12.92 45.1775 13.8925 44.34 15.2325C43.4925 16.4725 42.935 17.3825 43 18.75C42.965 19.9925 43.34 20.79 44.0425 21.8175C45.1025 23.4175 45.5 24.4125 45.5 26.25C45.5 27.91 45.175 28.875 44.3375 30.1825C43.4875 31.3975 42.9375 32.28 43 33.645C42.965 34.8825 43.3425 35.7025 44.0425 36.745C45.1025 38.38 45.5 39.3875 45.5 41.25C45.5 41.5815 45.3683 41.8995 45.1339 42.1339C44.8995 42.3683 44.5815 42.5 44.25 42.5C43.9185 42.5 43.6005 42.3683 43.3661 42.1339C43.1317 41.8995 43 41.5815 43 41.25C43.035 39.995 42.655 39.1725 41.9525 38.12C40.895 36.4925 40.5025 35.49 40.5025 33.645C40.5025 31.97 40.8275 30.995 41.6675 29.6825C42.51 28.475 43.0675 27.595 43 26.25C43.035 25.025 42.6625 24.23 41.965 23.2125C40.9 21.6075 40.5 20.605 40.5 18.75C40.5 17.08 40.825 16.1075 41.66 14.7675C42.505 13.5275 43.065 12.615 43 11.25C43 10.9185 43.1317 10.6005 43.3661 10.3661C43.6005 10.1317 43.9185 10 44.25 10ZM46.75 47.5C47.0815 47.5 47.3995 47.6317 47.6339 47.8661C47.8683 48.1005 48 48.4185 48 48.75C48 49.0815 47.8683 49.3995 47.6339 49.6339C47.3995 49.8683 47.0815 50 46.75 50H11.75C11.4185 50 11.1005 49.8683 10.8661 49.6339C10.6317 49.3995 10.5 49.0815 10.5 48.75C10.5 48.4185 10.6317 48.1005 10.8661 47.8661C11.1005 47.6317 11.4185 47.5 11.75 47.5H46.75Z" fill="#2D3047"/>
</svg>
