<svg width="60" height="60" viewBox="0 0 60 60" fill="none" xmlns="http://www.w3.org/2000/svg">
<path d="M29 10C29 10.5523 29.4477 11 30 11C30.5523 11 31 10.5523 31 10H29ZM31 5C31 4.44772 30.5523 4 30 4C29.4477 4 29 4.44772 29 5H31ZM31 50C31 49.4477 30.5523 49 30 49C29.4477 49 29 49.4477 29 50H31ZM29 55C29 55.5523 29.4477 56 30 56C30.5523 56 31 55.5523 31 55H29ZM15.3284 16.7426C15.719 17.1332 16.3521 17.1332 16.7426 16.7426C17.1332 16.3521 17.1332 15.719 16.7426 15.3284L15.3284 16.7426ZM13.2071 11.7929C12.8166 11.4024 12.1834 11.4024 11.7929 11.7929C11.4024 12.1834 11.4024 12.8166 11.7929 13.2071L13.2071 11.7929ZM45.0272 43.6127C44.6367 43.2221 44.0035 43.2221 43.613 43.6127C43.2224 44.0032 43.2224 44.6363 43.613 45.0269L45.0272 43.6127ZM47.1485 48.5624C47.539 48.9529 48.1722 48.9529 48.5627 48.5624C48.9532 48.1719 48.9532 47.5387 48.5627 47.1482L47.1485 48.5624ZM10 31C10.5523 31 11 30.5523 11 30C11 29.4477 10.5523 29 10 29V31ZM5 29C4.44772 29 4 29.4477 4 30C4 30.5523 4.44772 31 5 31V29ZM50 29C49.4477 29 49 29.4477 49 30C49 30.5523 49.4477 31 50 31V29ZM55 31C55.5523 31 56 30.5523 56 30C56 29.4477 55.5523 29 55 29V31ZM43.6142 15.3284C43.2237 15.719 43.2237 16.3521 43.6142 16.7426C44.0047 17.1332 44.6379 17.1332 45.0284 16.7426L43.6142 15.3284ZM48.5639 13.2071C48.9545 12.8166 48.9545 12.1834 48.5639 11.7929C48.1734 11.4024 47.5402 11.4024 47.1497 11.7929L48.5639 13.2071ZM16.7439 45.0269C17.1344 44.6363 17.1344 44.0032 16.7439 43.6127C16.3533 43.2221 15.7202 43.2221 15.3296 43.6127L16.7439 45.0269ZM11.7941 47.1482C11.4036 47.5387 11.4036 48.1719 11.7941 48.5624C12.1846 48.9529 12.8178 48.9529 13.2083 48.5624L11.7941 47.1482ZM30 42.5V41.5C23.6487 41.5 18.5 36.3513 18.5 30H17.5H16.5C16.5 37.4558 22.5442 43.5 30 43.5V42.5ZM17.5 30H18.5C18.5 23.6487 23.6487 18.5 30 18.5V17.5V16.5C22.5442 16.5 16.5 22.5442 16.5 30H17.5ZM30 17.5V18.5C36.3513 18.5 41.5 23.6487 41.5 30H42.5H43.5C43.5 22.5442 37.4558 16.5 30 16.5V17.5ZM42.5 30H41.5C41.5 36.3513 36.3513 41.5 30 41.5V42.5V43.5C37.4558 43.5 43.5 37.4558 43.5 30H42.5ZM30 10H31V5H30H29V10H30ZM30 50H29V55H30H31V50H30ZM16.0355 16.0355L16.7426 15.3284L13.2071 11.7929L12.5 12.5L11.7929 13.2071L15.3284 16.7426L16.0355 16.0355ZM44.3201 44.3198L43.613 45.0269L47.1485 48.5624L47.8556 47.8553L48.5627 47.1482L45.0272 43.6127L44.3201 44.3198ZM10 30V29H5V30V31H10V30ZM50 30V31H55V30V29H50V30ZM44.3213 16.0355L45.0284 16.7426L48.5639 13.2071L47.8568 12.5L47.1497 11.7929L43.6142 15.3284L44.3213 16.0355ZM16.0368 44.3198L15.3296 43.6127L11.7941 47.1482L12.5012 47.8553L13.2083 48.5624L16.7439 45.0269L16.0368 44.3198Z" fill="#2D3047"/>
</svg>
