<svg width="60" height="60" viewBox="0 0 60 60" fill="none" xmlns="http://www.w3.org/2000/svg">
<path d="M11.833 6.43593C12.5623 5.22937 14.3127 5.22937 15.042 6.43593L20.3333 15.1875C20.4192 15.3297 20.4657 15.4921 20.4682 15.6582C20.4707 15.8243 20.429 15.988 20.3474 16.1327C20.2658 16.2774 20.1472 16.3978 20.0038 16.4816C19.8604 16.5654 19.6973 16.6096 19.5312 16.6097H16.7188V20.3597C16.7188 20.6083 16.62 20.8468 16.4442 21.0226C16.2683 21.1984 16.0299 21.2972 15.7812 21.2972C15.5326 21.2972 15.2942 21.1984 15.1183 21.0226C14.9425 20.8468 14.8438 20.6083 14.8438 20.3597V15.6722C14.8438 15.4235 14.9425 15.1851 15.1183 15.0093C15.2942 14.8334 15.5326 14.7347 15.7812 14.7347H17.8691L13.4375 7.40577L9.00594 14.7347H11.3281C11.5768 14.7347 11.8152 14.8334 11.991 15.0093C12.1669 15.1851 12.2656 15.4235 12.2656 15.6722V24.5784C12.2656 24.8271 12.1669 25.0655 11.991 25.2413C11.8152 25.4172 11.5768 25.5159 11.3281 25.5159C11.0795 25.5159 10.841 25.4172 10.6652 25.2413C10.4894 25.0655 10.3906 24.8271 10.3906 24.5784V16.6097H7.34375C7.17754 16.6097 7.01431 16.5656 6.87078 16.4818C6.72724 16.398 6.60856 16.2775 6.5269 16.1328C6.44525 15.988 6.40354 15.8241 6.40606 15.658C6.40858 15.4918 6.45524 15.3292 6.54125 15.187L11.833 6.43593ZM30.5108 6.43593C29.7814 5.22937 28.0311 5.22937 27.3017 6.43593L22.0109 15.1875C21.9251 15.3296 21.8785 15.492 21.876 15.6581C21.8735 15.8241 21.9152 15.9878 21.9967 16.1325C22.0782 16.2772 22.1967 16.3976 22.3401 16.4814C22.4834 16.5652 22.6464 16.6095 22.8125 16.6097H25.8594V24.5784C25.8594 24.8271 25.9581 25.0655 26.134 25.2413C26.3098 25.4172 26.5482 25.5159 26.7969 25.5159C27.0455 25.5159 27.284 25.4172 27.4598 25.2413C27.6356 25.0655 27.7344 24.8271 27.7344 24.5784V15.6722C27.7344 15.4235 27.6356 15.1851 27.4598 15.0093C27.284 14.8334 27.0455 14.7347 26.7969 14.7347H24.4747L28.9062 7.40577L33.3378 14.7347H31.25C31.0014 14.7347 30.7629 14.8334 30.5871 15.0093C30.4113 15.1851 30.3125 15.4235 30.3125 15.6722V20.3597C30.3125 20.6083 30.4113 20.8468 30.5871 21.0226C30.7629 21.1984 31.0014 21.2972 31.25 21.2972C31.4986 21.2972 31.7371 21.1984 31.9129 21.0226C32.0887 20.8468 32.1875 20.6083 32.1875 20.3597V16.6097H35C35.1662 16.6096 35.3293 16.5655 35.4728 16.4816C35.6163 16.3978 35.7349 16.2773 35.8165 16.1326C35.8981 15.9878 35.9398 15.824 35.9372 15.6578C35.9347 15.4917 35.888 15.3292 35.802 15.187L30.5108 6.43593ZM45.9795 6.43593C45.2502 5.22937 43.4998 5.22937 42.7705 6.43593L37.4797 15.1875C37.3938 15.3296 37.3473 15.492 37.3448 15.6581C37.3423 15.8241 37.3839 15.9878 37.4655 16.1325C37.547 16.2772 37.6655 16.3976 37.8088 16.4814C37.9522 16.5652 38.1152 16.6095 38.2812 16.6097H41.3281V24.5784C41.3281 24.8271 41.4269 25.0655 41.6027 25.2413C41.7785 25.4172 42.017 25.5159 42.2656 25.5159C42.5143 25.5159 42.7527 25.4172 42.9285 25.2413C43.1044 25.0655 43.2031 24.8271 43.2031 24.5784V15.6722C43.2031 15.4235 43.1044 15.1851 42.9285 15.0093C42.7527 14.8334 42.5143 14.7347 42.2656 14.7347H39.9434L44.375 7.40577L48.8066 14.7347H46.7188C46.4701 14.7347 46.2317 14.8334 46.0558 15.0093C45.88 15.1851 45.7812 15.4235 45.7812 15.6722V20.3597C45.7812 20.6083 45.88 20.8468 46.0558 21.0226C46.2317 21.1984 46.4701 21.2972 46.7188 21.2972C46.9674 21.2972 47.2058 21.1984 47.3817 21.0226C47.5575 20.8468 47.6562 20.6083 47.6562 20.3597V16.6097H50.4688C50.635 16.6098 50.7982 16.5657 50.9418 16.4819C51.0854 16.3981 51.204 16.2776 51.2857 16.1328C51.3673 15.988 51.4089 15.8241 51.4063 15.6579C51.4037 15.4917 51.3569 15.3292 51.2708 15.187L45.9795 6.43593ZM11.4453 28.3284C7.88563 28.3284 5 31.2141 5 34.7737C5 38.3334 7.88563 41.2191 11.4453 41.2191H47.1875C49.7764 41.2191 51.875 43.3176 51.875 45.9066C51.875 48.4955 49.7764 50.5941 47.1875 50.5941H5.9375C5.68886 50.5941 5.4504 50.6928 5.27459 50.8686C5.09877 51.0445 5 51.2829 5 51.5316C5 51.7802 5.09877 52.0187 5.27459 52.1945C5.4504 52.3703 5.68886 52.4691 5.9375 52.4691H47.1875C50.8119 52.4691 53.75 49.5309 53.75 45.9066C53.75 42.2822 50.8119 39.3441 47.1875 39.3441H11.4453C8.92109 39.3441 6.875 37.298 6.875 34.7737C6.875 32.2495 8.92109 30.2034 11.4453 30.2034H52.8125C53.0611 30.2034 53.2996 30.1047 53.4754 29.9288C53.6512 29.753 53.75 29.5146 53.75 29.2659C53.75 29.0173 53.6512 28.7788 53.4754 28.603C53.2996 28.4272 53.0611 28.3284 52.8125 28.3284H11.4453Z" fill="#2D3047"/>
</svg>
