<svg width="4" height="17" viewBox="0 0 4 17" fill="none" xmlns="http://www.w3.org/2000/svg">
<path d="M1.103 11.44L0.623 7.096L0.479 0.879999H3.455L3.311 7.048L2.831 11.44H1.103ZM2.063 16.168C1.631 16.168 1.263 16.032 0.959 15.76C0.671 15.488 0.527 15.152 0.527 14.752C0.527 14.368 0.671 14.04 0.959 13.768C1.263 13.48 1.631 13.336 2.063 13.336C2.495 13.336 2.855 13.48 3.143 13.768C3.447 14.04 3.599 14.368 3.599 14.752C3.599 15.152 3.447 15.488 3.143 15.76C2.855 16.032 2.495 16.168 2.063 16.168Z" fill="white"/>
</svg>
