<svg width="60" height="60" viewBox="0 0 60 60" fill="none" xmlns="http://www.w3.org/2000/svg">
<path d="M3.9375 9.82172H56.4375C56.955 9.82172 57.375 9.40734 57.375 8.89547C57.3744 8.77301 57.3496 8.65188 57.3022 8.53899C57.2547 8.4261 57.1855 8.32368 57.0984 8.23757C57.0113 8.15146 56.9082 8.08335 56.7948 8.03715C56.6814 7.99094 56.56 7.96754 56.4375 7.96828H3.9375C3.42 7.96828 3 8.38265 3 8.89547C3 9.40734 3.42 9.82172 3.9375 9.82172ZM56.4375 11.6761H3.9375C3.42 11.6761 3 12.0905 3 12.6033C3 13.1152 3.42 13.5295 3.9375 13.5295H20.1094V20.5317C20.1094 20.7848 20.1984 21.0342 20.3653 21.2377L27.1406 29.3873V29.9827H24.6516C24.2878 29.9827 23.9438 30.158 23.7328 30.4514C23.5219 30.7448 23.4703 31.1264 23.5913 31.4648L27.2672 37.2548C27.4566 37.6233 27.8428 37.8614 28.2703 37.8614H32.1047C32.5322 37.8614 32.9184 37.6233 33.1078 37.2548L36.6919 31.6514L36.7837 31.4648C36.9056 31.1255 36.8522 30.7467 36.6413 30.4523C36.4303 30.158 36.0881 29.9827 35.7225 29.9827H33.2344V29.3873L40.0134 21.233C40.1766 21.0342 40.2656 20.7858 40.2656 20.5317V13.5295H56.4375C56.955 13.5295 57.375 13.1152 57.375 12.6033C57.3745 12.4807 57.3499 12.3595 57.3025 12.2465C57.2551 12.1335 57.1858 12.031 57.0987 11.9448C57.0117 11.8586 56.9084 11.7904 56.795 11.7441C56.6815 11.6978 56.56 11.6754 56.4375 11.6761ZM29.0156 13.5295H31.3594V29.9827H29.0156V13.5295ZM21.9844 20.2664V13.5295H27.1406V26.468L21.9844 20.2664ZM34.3556 31.8361L31.6875 36.0089H28.6875L26.0194 31.837H33.2344L34.3556 31.8361ZM38.3906 20.2664L33.2344 26.468V13.5305H38.3906V20.2664ZM25.3847 39.7308C25.2661 39.6992 25.1424 39.6913 25.0207 39.7075C24.899 39.7237 24.7817 39.7637 24.6755 39.8253C24.5693 39.8868 24.4763 39.9687 24.4017 40.0662C24.3271 40.1637 24.2725 40.275 24.2409 40.3936L23.3034 43.9561C23.2673 44.094 23.2636 44.2384 23.2925 44.3781C23.3213 44.5177 23.382 44.6488 23.4699 44.7611C23.5577 44.8734 23.6702 44.9639 23.7988 45.0256C23.9273 45.0873 24.0684 45.1185 24.2109 45.1167C24.6281 45.1167 25.0078 44.8411 25.1184 44.423L26.0559 40.8605C26.0866 40.7421 26.0935 40.6189 26.0763 40.4979C26.0591 40.3769 26.0181 40.2605 25.9557 40.1554C25.8933 40.0503 25.8107 39.9586 25.7127 39.8855C25.6147 39.8125 25.5032 39.7605 25.3847 39.7308ZM37.0716 43.9561L36.1341 40.3936C36.0692 40.1547 35.9127 39.951 35.6986 39.8267C35.4844 39.7024 35.2299 39.6676 34.9903 39.7298C34.8718 39.7596 34.7603 39.8125 34.6623 39.8855C34.5643 39.9586 34.4817 40.0503 34.4193 40.1554C34.3569 40.2605 34.3159 40.3769 34.2987 40.4979C34.2815 40.6189 34.2884 40.7421 34.3191 40.8605L35.2566 44.423C35.3203 44.6626 35.4766 44.8671 35.6911 44.9915C35.9055 45.116 36.1606 45.1502 36.4003 45.0867C36.5189 45.057 36.6304 45.0041 36.7284 44.931C36.8264 44.858 36.909 44.7663 36.9714 44.6612C37.0338 44.5561 37.0747 44.4397 37.0919 44.3186C37.1091 44.1976 37.1022 44.0744 37.0716 43.9561ZM30.1875 39.7008C29.67 39.7008 29.25 40.1152 29.25 40.627V44.1895C29.25 44.7023 29.67 45.1177 30.1875 45.1177C30.705 45.1177 31.125 44.7023 31.125 44.1895V40.627C31.1243 40.5047 31.0994 40.3836 31.0519 40.2708C31.0044 40.1581 30.9351 40.0557 30.8481 39.9697C30.761 39.8837 30.6579 39.8157 30.5445 39.7696C30.4312 39.7234 30.3099 39.7 30.1875 39.7008ZM23.3466 46.672C23.114 46.5859 22.8568 46.5951 22.631 46.6976C22.4052 46.8001 22.2291 46.9877 22.1409 47.2195L20.8078 50.782C20.7653 50.8965 20.7459 51.0182 20.7507 51.1402C20.7555 51.2622 20.7845 51.382 20.8359 51.4928C20.8874 51.6035 20.9603 51.7029 21.0504 51.7853C21.1405 51.8677 21.246 51.9313 21.3609 51.9727C21.5933 52.0593 21.8506 52.0503 22.0764 51.9477C22.3022 51.8451 22.4781 51.6572 22.5656 51.4252L23.8997 47.8627C23.9422 47.7482 23.9616 47.6265 23.9568 47.5045C23.952 47.3825 23.923 47.2627 23.8716 47.1519C23.8201 47.0412 23.7472 46.9418 23.6571 46.8594C23.567 46.777 23.4615 46.7133 23.3466 46.672ZM38.2341 47.2195C38.1465 46.9873 37.9704 46.7992 37.7444 46.6965C37.5184 46.5939 37.2609 46.5851 37.0284 46.672C36.9136 46.7133 36.808 46.777 36.7179 46.8594C36.6278 46.9418 36.5549 47.0412 36.5034 47.1519C36.452 47.2627 36.423 47.3825 36.4182 47.5045C36.4134 47.6265 36.4328 47.7482 36.4753 47.8627L37.8084 51.4252C37.896 51.6572 38.0719 51.8451 38.2977 51.9477C38.5235 52.0503 38.7807 52.0593 39.0131 51.9727C39.128 51.9313 39.2336 51.8677 39.3237 51.7853C39.4138 51.7029 39.4867 51.6035 39.5381 51.4928C39.5896 51.382 39.6185 51.2622 39.6234 51.1402C39.6282 51.0182 39.6088 50.8965 39.5662 50.782L38.2341 47.2195ZM30.1875 46.6139C29.67 46.6139 29.25 47.0283 29.25 47.5411V51.1036C29.25 51.6164 29.67 52.0308 30.1875 52.0308C30.705 52.0308 31.125 51.6164 31.125 51.1036V47.5411C31.1244 47.4186 31.0996 47.2975 31.0522 47.1846C31.0047 47.0717 30.9355 46.9693 30.8484 46.8832C30.7614 46.7971 30.6582 46.729 30.5448 46.6828C30.4314 46.6366 30.31 46.6132 30.1875 46.6139Z" fill="#2D3047"/>
</svg>
