<svg width="60" height="60" viewBox="0 0 60 60" fill="none" xmlns="http://www.w3.org/2000/svg">
<path fill-rule="evenodd" clip-rule="evenodd" d="M42.2168 17.4713C42.2168 17.6888 42.1303 17.8975 41.9765 18.0513C41.8227 18.2052 41.614 18.2916 41.3964 18.2916H18.493C18.2754 18.2916 18.0668 18.2052 17.9129 18.0513C17.7591 17.8975 17.6727 17.6888 17.6727 17.4713C17.6727 17.2537 17.7591 17.0451 17.9129 16.8912C18.0668 16.7374 18.2754 16.651 18.493 16.651H41.3963C41.5041 16.651 41.6107 16.6722 41.7103 16.7134C41.8098 16.7546 41.9003 16.815 41.9765 16.8912C42.0526 16.9674 42.1131 17.0578 42.1543 17.1573C42.1955 17.2569 42.2168 17.3636 42.2168 17.4713ZM58.4091 32.4898C58.2406 34.7785 56.4896 36.5045 54.3364 36.5045H5.55289C3.39957 36.5045 1.64867 34.7785 1.47992 32.4897C0.837265 23.7916 0.83996 17.6324 1.48848 13.6601C1.75039 12.0544 2.87797 10.9756 4.29441 10.9756H55.5946C57.0109 10.9756 58.1386 12.0544 58.4006 13.6601C59.0492 17.6324 59.052 23.7916 58.4091 32.4898ZM51.0091 30.235C51.0091 29.6696 50.5491 29.2096 49.9837 29.2096H9.90559C9.34016 29.2096 8.8802 29.6696 8.8802 30.235V34.8639H51.0091V30.235ZM56.7816 13.9245C56.6831 13.321 56.3131 12.6162 55.5948 12.6162H4.29453C3.57605 12.6162 3.20621 13.321 3.10766 13.9244C2.48023 17.7678 2.48305 23.8009 3.11621 32.369C3.22262 33.8147 4.24742 34.8639 5.55289 34.8639H7.23957V30.235C7.23957 28.765 8.43559 27.569 9.90559 27.569H49.9837C51.4537 27.569 52.6497 28.765 52.6497 30.235V34.8639H54.3365C55.6419 34.8639 56.6667 33.8147 56.7731 32.3691C57.4062 23.8011 57.4091 17.7678 56.7816 13.9245ZM29.9446 40.2545C29.7271 40.2545 29.5184 40.341 29.3646 40.4948C29.2108 40.6486 29.1243 40.8573 29.1243 41.0748V48.2042C29.1243 48.4217 29.2108 48.6304 29.3646 48.7842C29.5184 48.9381 29.7271 49.0245 29.9446 49.0245C30.1622 49.0245 30.3709 48.9381 30.5247 48.7842C30.6785 48.6304 30.765 48.4217 30.765 48.2042V41.0748C30.765 40.8573 30.6785 40.6486 30.5247 40.4948C30.3709 40.341 30.1622 40.2545 29.9446 40.2545ZM22.8986 40.2552C22.6813 40.2642 22.4763 40.3591 22.3289 40.5191C22.1815 40.6791 22.1037 40.8911 22.1127 41.1085C22.2145 43.5914 21.5089 45.9937 20.1766 47.6992C20.082 47.8203 20.0233 47.9655 20.0072 48.1184C19.9912 48.2712 20.0183 48.4254 20.0857 48.5636C20.153 48.7017 20.2578 48.8181 20.388 48.8996C20.5183 48.9811 20.6689 49.0243 20.8225 49.0244C20.9473 49.0246 21.0704 48.9963 21.1825 48.9416C21.2947 48.887 21.3928 48.8074 21.4695 48.709C23.0376 46.7016 23.8694 43.9068 23.7519 41.0411C23.7334 40.5885 23.3505 40.2373 22.8986 40.2552ZM15.5565 40.2557C15.1047 40.2311 14.7181 40.5798 14.6947 41.0322C14.5652 43.5175 13.6357 45.871 12.1446 47.4893C12.0366 47.6065 11.965 47.7526 11.9387 47.9098C11.9124 48.067 11.9324 48.2285 11.9964 48.3745C12.0603 48.5204 12.1654 48.6446 12.2988 48.7318C12.4322 48.8191 12.5881 48.8655 12.7475 48.8656C12.9688 48.8656 13.1893 48.7766 13.3509 48.6011C15.0969 46.7063 16.1839 43.9788 16.3328 41.1177C16.3385 41.0102 16.3229 40.9025 16.2869 40.801C16.2509 40.6994 16.1953 40.606 16.1232 40.5259C16.0511 40.4459 15.964 40.3808 15.8667 40.3345C15.7695 40.2881 15.6641 40.2613 15.5565 40.2557ZM37.7768 41.1085C37.7844 40.8919 37.706 40.681 37.5587 40.522C37.4114 40.363 37.2072 40.2688 36.9906 40.2599C36.774 40.251 36.5627 40.3282 36.4029 40.4746C36.2431 40.621 36.1477 40.8247 36.1375 41.0412C36.0199 43.9067 36.8519 46.7016 38.42 48.7091C38.4967 48.8075 38.5948 48.8871 38.707 48.9417C38.8191 48.9964 38.9422 49.0247 39.067 49.0245C39.2207 49.0244 39.3712 48.9812 39.5015 48.8997C39.6318 48.8182 39.7365 48.7018 39.8039 48.5637C39.8712 48.4256 39.8984 48.2713 39.8823 48.1185C39.8662 47.9657 39.8075 47.8204 39.7129 47.6993C38.3805 45.9936 37.6749 43.5913 37.7768 41.1085ZM45.1948 41.0322C45.1713 40.5797 44.785 40.2312 44.333 40.2557C44.1158 40.267 43.912 40.3642 43.7663 40.5258C43.6207 40.6874 43.5453 40.9003 43.5566 41.1175C43.7056 43.9785 44.7927 46.7061 46.5385 48.6009C46.6153 48.6844 46.7085 48.751 46.8124 48.7965C46.9163 48.8421 47.0285 48.8655 47.1419 48.8654C47.3479 48.8656 47.5463 48.7881 47.6975 48.6482C47.8575 48.5008 47.9523 48.2958 47.9612 48.0785C47.9701 47.8611 47.8923 47.6491 47.7448 47.4891C46.254 45.8711 45.3245 43.5175 45.1948 41.0322ZM49.8339 16.3579C49.2208 16.3579 48.7207 16.858 48.7207 17.4712C48.7207 18.0844 49.2208 18.5845 49.8339 18.5845C50.4472 18.5845 50.9472 18.0843 50.9472 17.4712C50.9472 16.858 50.4472 16.3579 49.8339 16.3579Z" fill="#2D3047"/>
</svg>
