<svg width="60" height="60" viewBox="0 0 60 60" fill="none" xmlns="http://www.w3.org/2000/svg">
<path d="M58.9453 8.24487H1.05469C0.774967 8.24487 0.506703 8.35599 0.308911 8.55378C0.111119 8.75158 0 9.01984 0 9.29956L0 15.3021C0 18.1903 1.7448 20.6775 4.23516 21.7687V25.9905C4.23516 32.8452 6.92274 39.3079 11.8027 44.1878C16.6826 49.0677 23.1452 51.7553 30 51.7553C36.8548 51.7553 43.3174 49.0677 48.1973 44.1878C53.0773 39.3079 55.7648 32.8452 55.7648 25.9905V21.7687C58.2551 20.6776 60 18.1905 60 15.3021V9.29956C60 9.01984 59.8889 8.75158 59.6911 8.55378C59.4933 8.35599 59.225 8.24487 58.9453 8.24487ZM53.6555 25.9905C53.6555 39.0342 43.0437 49.6459 30 49.6459C16.9563 49.6459 6.34453 39.0342 6.34453 25.9905V22.3233C6.57891 22.3469 6.81668 22.3592 7.05727 22.3592H52.943C53.1836 22.3592 53.4212 22.3469 53.6557 22.3233V25.9905H53.6555ZM57.8906 15.3021C57.8906 18.0303 55.6711 20.2499 52.9429 20.2499H7.05715C4.32891 20.2499 2.10938 18.0303 2.10938 15.3021V10.3542H57.8906V15.3021ZM30 30.2636C25.0931 30.2636 21.1011 34.2556 21.1011 39.1626C21.1011 44.0693 25.0931 48.0614 30 48.0614C34.9069 48.0614 38.8989 44.0694 38.8989 39.1626C38.8989 34.2556 34.9069 30.2636 30 30.2636ZM30 45.9519C26.2562 45.9519 23.2105 42.9062 23.2105 39.1624C23.2105 35.4187 26.2562 32.3728 30 32.3728C33.7437 32.3728 36.7895 35.4185 36.7895 39.1624C36.7895 42.9062 33.7438 45.9519 30 45.9519ZM30 34.3729C27.3591 34.3729 25.2104 36.5214 25.2104 39.1623C25.2104 41.8033 27.3589 43.9519 30 43.9519C32.6409 43.9519 34.7895 41.8033 34.7895 39.1623C34.7895 36.5214 32.6409 34.3729 30 34.3729ZM30 41.8426C28.5221 41.8426 27.3198 40.6403 27.3198 39.1624C27.3198 37.6847 28.5221 36.4824 30 36.4824C31.4779 36.4824 32.6801 37.6847 32.6801 39.1624C32.6802 40.6403 31.4779 41.8426 30 41.8426ZM45.9982 25.2391C44.1111 25.2391 42.5759 26.7743 42.5759 28.6614C42.5759 30.5485 44.1111 32.0837 45.9982 32.0837C47.8854 32.0837 49.4207 30.5485 49.4207 28.6614C49.4207 26.7743 47.8853 25.2391 45.9982 25.2391ZM45.9982 29.9744C45.2742 29.9744 44.6852 29.3854 44.6852 28.6614C44.6852 27.9374 45.2742 27.3484 45.9982 27.3484C46.7222 27.3484 47.3113 27.9374 47.3113 28.6614C47.3113 29.3854 46.7222 29.9744 45.9982 29.9744Z" fill="#A3887B"/>
</svg>
