<svg width="108" height="860" viewBox="0 0 108 860" fill="none" xmlns="http://www.w3.org/2000/svg">
<mask id="path-1-inside-1_11_700" fill="white">
<path fill-rule="evenodd" clip-rule="evenodd" d="M2.57063 860C68.6404 741.343 108 592.106 108 430C108 267.894 68.6404 118.657 2.57064 0L0 0V860H2.57063Z"/>
</mask>
<path fill-rule="evenodd" clip-rule="evenodd" d="M2.57063 860C68.6404 741.343 108 592.106 108 430C108 267.894 68.6404 118.657 2.57064 0L0 0V860H2.57063Z" fill="#FFFBF9"/>
<path d="M2.57063 860V861H3.15839L3.44432 860.487L2.57063 860ZM2.57064 0L3.44433 -0.486482L3.1584 -1H2.57064V0ZM0 0L0 -1H-1V0H0ZM0 860H-1V861H0V860ZM107 430C107 591.949 67.6779 741.016 1.69694 859.513L3.44432 860.487C69.603 741.67 109 592.264 109 430H107ZM1.69695 0.486482C67.6779 118.984 107 268.051 107 430H109C109 267.736 69.603 118.33 3.44433 -0.486482L1.69695 0.486482ZM0 1H2.57064V-1H0L0 1ZM1 860V0H-1V860H1ZM2.57063 859H0V861H2.57063V859Z" fill="#DACFCA" mask="url(#path-1-inside-1_11_700)"/>
</svg>
