<svg width="34" height="34" viewBox="0 0 34 34" fill="none" xmlns="http://www.w3.org/2000/svg">
<circle cx="17" cy="17" r="17" fill="#A3887B"/>
<path d="M16.103 19.44L15.623 15.096L15.479 8.88H18.455L18.311 15.048L17.831 19.44H16.103ZM17.063 24.168C16.631 24.168 16.263 24.032 15.959 23.76C15.671 23.488 15.527 23.152 15.527 22.752C15.527 22.368 15.671 22.04 15.959 21.768C16.263 21.48 16.631 21.336 17.063 21.336C17.495 21.336 17.855 21.48 18.143 21.768C18.447 22.04 18.599 22.368 18.599 22.752C18.599 23.152 18.447 23.488 18.143 23.76C17.855 24.032 17.495 24.168 17.063 24.168Z" fill="white"/>
</svg>
