<svg width="295" height="48" viewBox="0 0 295 48" fill="none" xmlns="http://www.w3.org/2000/svg">
<circle cx="17" cy="24" r="17" fill="#8C6659"/>
<path d="M16.103 26.44L15.623 22.096L15.479 15.88H18.455L18.311 22.048L17.831 26.44H16.103ZM17.063 31.168C16.631 31.168 16.263 31.032 15.959 30.76C15.671 30.488 15.527 30.152 15.527 29.752C15.527 29.368 15.671 29.04 15.959 28.768C16.263 28.48 16.631 28.336 17.063 28.336C17.495 28.336 17.855 28.48 18.143 28.768C18.447 29.04 18.599 29.368 18.599 29.752C18.599 30.152 18.447 30.488 18.143 30.76C17.855 31.032 17.495 31.168 17.063 31.168Z" fill="white"/>
<rect x="39.5" y="0.5" width="255" height="47" fill="white"/>
<rect x="39.5" y="0.5" width="255" height="47" stroke="#DACFCA"/>
<path d="M60.484 29V18.99H63.704C64.6747 18.99 65.524 19.2047 66.252 19.634C66.9893 20.0633 67.5633 20.656 67.974 21.412C68.394 22.1587 68.604 23.0173 68.604 23.988C68.604 24.9587 68.394 25.822 67.974 26.578C67.5633 27.334 66.9893 27.9267 66.252 28.356C65.524 28.7853 64.6747 29 63.704 29H60.484ZM61.604 28.006H63.704C64.4693 28.006 65.1273 27.838 65.678 27.502C66.238 27.166 66.672 26.6947 66.98 26.088C67.288 25.4813 67.442 24.7813 67.442 23.988C67.442 23.1947 67.288 22.4993 66.98 21.902C66.672 21.2953 66.238 20.824 65.678 20.488C65.1273 20.152 64.4693 19.984 63.704 19.984H61.604V28.006ZM75.6662 27.026L76.3942 27.726C76.0302 28.23 75.6009 28.608 75.1062 28.86C74.6209 29.1027 74.0842 29.224 73.4962 29.224C72.8056 29.224 72.1942 29.0653 71.6622 28.748C71.1396 28.4307 70.7289 27.9967 70.4302 27.446C70.1409 26.886 69.9962 26.256 69.9962 25.556C69.9962 24.856 70.1409 24.2307 70.4302 23.68C70.7289 23.12 71.1302 22.6813 71.6342 22.364C72.1476 22.0467 72.7216 21.888 73.3562 21.888C73.9816 21.888 74.5322 22.042 75.0082 22.35C75.4936 22.658 75.8716 23.0873 76.1422 23.638C76.4129 24.1793 76.5482 24.8047 76.5482 25.514V25.598H75.4562V25.5C75.4562 24.6973 75.2649 24.0533 74.8822 23.568C74.4996 23.0733 73.9909 22.826 73.3562 22.826C72.9269 22.826 72.5396 22.9427 72.1942 23.176C71.8582 23.4 71.5922 23.7173 71.3962 24.128C71.2096 24.5387 71.1162 25.01 71.1162 25.542C71.1162 26.074 71.2142 26.5453 71.4102 26.956C71.6156 27.3667 71.9002 27.6933 72.2642 27.936C72.6376 28.1693 73.0716 28.286 73.5662 28.286C73.9956 28.286 74.3829 28.1833 74.7282 27.978C75.0736 27.7727 75.3862 27.4553 75.6662 27.026ZM76.5482 25.934H70.8502V25.052H76.3382L76.5482 25.514V25.934ZM79.8892 29H78.8112V20.6C78.8112 19.48 79.3432 18.92 80.4072 18.92H81.7652V19.816H80.6732C80.3932 19.816 80.1925 19.886 80.0712 20.026C79.9499 20.1567 79.8892 20.3713 79.8892 20.67V29ZM81.7652 23.036H77.4952V22.112H81.7652V23.036ZM88.5204 29H87.4984V27.656L87.4844 27.264V24.702C87.4844 24.1233 87.3071 23.666 86.9524 23.33C86.6071 22.9847 86.1311 22.812 85.5244 22.812C84.7311 22.812 84.0591 23.1433 83.5084 23.806L82.8084 23.12C83.5924 22.2987 84.5211 21.888 85.5944 21.888C86.1824 21.888 86.6958 22.0047 87.1344 22.238C87.5731 22.462 87.9138 22.784 88.1564 23.204C88.3991 23.6147 88.5204 24.1 88.5204 24.66V29ZM85.0624 29.224C84.5771 29.224 84.1478 29.1307 83.7744 28.944C83.4011 28.7573 83.1071 28.5007 82.8924 28.174C82.6871 27.838 82.5844 27.46 82.5844 27.04C82.5844 26.34 82.8504 25.7847 83.3824 25.374C83.9238 24.9633 84.6471 24.758 85.5524 24.758H87.6104V25.626H85.6784C85.0531 25.626 84.5678 25.7473 84.2224 25.99C83.8771 26.2233 83.7044 26.5593 83.7044 26.998C83.7044 27.3993 83.8398 27.7213 84.1104 27.964C84.3904 28.2067 84.7591 28.328 85.2164 28.328C85.6644 28.328 86.0658 28.2347 86.4204 28.048C86.7751 27.852 87.0598 27.586 87.2744 27.25C87.4891 26.9047 87.6104 26.5127 87.6384 26.074L88.0444 26.312C88.0444 26.872 87.9138 27.3713 87.6524 27.81C87.4004 28.2487 87.0504 28.594 86.6024 28.846C86.1544 29.098 85.6411 29.224 85.0624 29.224ZM96.612 29H95.548V27.656L95.534 27.264V22.112H96.612V29ZM95.66 26.018L95.884 26.312C95.9213 26.872 95.8233 27.3713 95.59 27.81C95.366 28.2487 95.0487 28.594 94.638 28.846C94.2273 29.098 93.7513 29.224 93.21 29.224C92.4353 29.224 91.8147 28.9767 91.348 28.482C90.8813 27.9873 90.648 27.2733 90.648 26.34V22.112H91.726V26.228C91.726 26.9 91.8753 27.4133 92.174 27.768C92.4727 28.1133 92.8927 28.286 93.434 28.286C93.8167 28.286 94.1667 28.1927 94.484 28.006C94.8107 27.81 95.0767 27.544 95.282 27.208C95.4967 26.8627 95.6227 26.466 95.66 26.018ZM100.069 29H98.9908V18.92H100.069V29ZM106.034 29H104.494C104.008 29 103.64 28.8693 103.388 28.608C103.136 28.3373 103.01 27.9547 103.01 27.46V20.096H104.088V27.362C104.088 27.586 104.144 27.7633 104.256 27.894C104.368 28.0153 104.536 28.076 104.76 28.076H106.034V29ZM105.936 23.036H101.694V22.112H105.936V23.036Z" fill="#2D3047"/>
<path d="M230.396 18.766C231.115 18.766 231.749 18.9293 232.3 19.256C232.851 19.5733 233.28 20.0213 233.588 20.6C233.905 21.1787 234.064 21.846 234.064 22.602C234.064 23.3487 233.933 24.072 233.672 24.772C233.42 25.4627 233.014 26.158 232.454 26.858C231.903 27.5487 231.185 28.2627 230.298 29H227.834C228.609 28.3467 229.253 27.7633 229.766 27.25C230.289 26.7273 230.713 26.242 231.04 25.794C231.367 25.346 231.628 24.912 231.824 24.492L231.936 24.576C231.749 24.9307 231.483 25.206 231.138 25.402C230.793 25.598 230.377 25.696 229.892 25.696C229.267 25.696 228.711 25.556 228.226 25.276C227.741 24.996 227.358 24.604 227.078 24.1C226.798 23.5867 226.658 22.9987 226.658 22.336C226.658 21.6453 226.817 21.034 227.134 20.502C227.451 19.9607 227.89 19.536 228.45 19.228C229.019 18.92 229.668 18.766 230.396 18.766ZM230.382 20.32C230.027 20.32 229.71 20.404 229.43 20.572C229.15 20.74 228.931 20.9733 228.772 21.272C228.613 21.5613 228.534 21.902 228.534 22.294C228.534 22.6673 228.613 22.9987 228.772 23.288C228.931 23.5773 229.15 23.806 229.43 23.974C229.71 24.1327 230.027 24.212 230.382 24.212C230.737 24.212 231.049 24.1327 231.32 23.974C231.6 23.8153 231.819 23.5913 231.978 23.302C232.137 23.0127 232.216 22.6767 232.216 22.294C232.216 21.9113 232.137 21.5753 231.978 21.286C231.819 20.9873 231.6 20.754 231.32 20.586C231.049 20.4087 230.737 20.32 230.382 20.32ZM236.404 31.128H235.27C236.016 30.2227 236.39 29.3453 236.39 28.496L236.6 29.182C236.254 29.182 235.965 29.07 235.732 28.846C235.508 28.622 235.396 28.342 235.396 28.006C235.396 27.6607 235.508 27.3807 235.732 27.166C235.956 26.942 236.24 26.83 236.586 26.83C236.931 26.83 237.211 26.9467 237.426 27.18C237.65 27.4133 237.762 27.7073 237.762 28.062C237.762 28.5753 237.64 29.1027 237.398 29.644C237.155 30.1853 236.824 30.68 236.404 31.128ZM238.86 27.502L240.064 26.284C240.419 26.7693 240.783 27.1193 241.156 27.334C241.539 27.5487 241.959 27.656 242.416 27.656C242.771 27.656 243.088 27.5953 243.368 27.474C243.648 27.3433 243.872 27.1613 244.04 26.928C244.208 26.6853 244.292 26.396 244.292 26.06C244.292 25.612 244.129 25.2573 243.802 24.996C243.476 24.7347 243.018 24.604 242.43 24.604H241.59V23.036H242.43C242.906 23.036 243.284 22.9147 243.564 22.672C243.844 22.4293 243.984 22.1073 243.984 21.706C243.984 21.3233 243.849 21.006 243.578 20.754C243.308 20.4927 242.948 20.362 242.5 20.362C242.052 20.362 241.656 20.4647 241.31 20.67C240.974 20.8753 240.638 21.2113 240.302 21.678L239.098 20.418C239.537 19.8673 240.055 19.4567 240.652 19.186C241.259 18.906 241.922 18.766 242.64 18.766C243.284 18.766 243.854 18.8873 244.348 19.13C244.843 19.3727 245.23 19.704 245.51 20.124C245.79 20.544 245.93 21.0293 245.93 21.58C245.93 22.056 245.8 22.4713 245.538 22.826C245.277 23.1807 244.908 23.4607 244.432 23.666C243.956 23.862 243.396 23.96 242.752 23.96L242.948 23.442C243.62 23.442 244.204 23.554 244.698 23.778C245.193 23.9927 245.571 24.3007 245.832 24.702C246.094 25.094 246.224 25.57 246.224 26.13C246.224 26.7367 246.066 27.2733 245.748 27.74C245.44 28.2067 245.011 28.5707 244.46 28.832C243.91 29.0933 243.27 29.224 242.542 29.224C241.758 29.224 241.058 29.084 240.442 28.804C239.836 28.5147 239.308 28.0807 238.86 27.502ZM251.259 29.224C250.531 29.224 249.887 29.098 249.327 28.846C248.767 28.5847 248.324 28.23 247.997 27.782C247.68 27.3247 247.521 26.802 247.521 26.214C247.521 25.654 247.68 25.1547 247.997 24.716C248.324 24.2773 248.767 23.9367 249.327 23.694C249.887 23.442 250.531 23.316 251.259 23.316C251.987 23.316 252.626 23.442 253.177 23.694C253.737 23.9367 254.176 24.2773 254.493 24.716C254.82 25.1547 254.983 25.654 254.983 26.214C254.983 26.802 254.82 27.3247 254.493 27.782C254.176 28.23 253.737 28.5847 253.177 28.846C252.626 29.098 251.987 29.224 251.259 29.224ZM251.259 27.67C251.614 27.67 251.926 27.6047 252.197 27.474C252.468 27.334 252.678 27.152 252.827 26.928C252.986 26.6947 253.065 26.424 253.065 26.116C253.065 25.8173 252.986 25.5513 252.827 25.318C252.678 25.0847 252.468 24.9027 252.197 24.772C251.926 24.6413 251.609 24.576 251.245 24.576C250.9 24.576 250.587 24.6413 250.307 24.772C250.036 24.9027 249.822 25.0847 249.663 25.318C249.514 25.5513 249.439 25.8173 249.439 26.116C249.439 26.424 249.514 26.6947 249.663 26.928C249.822 27.152 250.041 27.334 250.321 27.474C250.601 27.6047 250.914 27.67 251.259 27.67ZM251.259 24.044C250.606 24.044 250.027 23.9367 249.523 23.722C249.019 23.498 248.622 23.1947 248.333 22.812C248.044 22.4293 247.899 21.9907 247.899 21.496C247.899 20.964 248.044 20.4927 248.333 20.082C248.622 19.6713 249.019 19.3493 249.523 19.116C250.036 18.8827 250.615 18.766 251.259 18.766C251.912 18.766 252.491 18.8827 252.995 19.116C253.499 19.3493 253.891 19.6713 254.171 20.082C254.46 20.4927 254.605 20.964 254.605 21.496C254.605 21.9907 254.46 22.4293 254.171 22.812C253.891 23.1947 253.499 23.498 252.995 23.722C252.491 23.9367 251.912 24.044 251.259 24.044ZM251.259 23.05C251.548 23.05 251.805 22.9893 252.029 22.868C252.253 22.7467 252.43 22.588 252.561 22.392C252.692 22.1867 252.757 21.9533 252.757 21.692C252.757 21.4213 252.692 21.1833 252.561 20.978C252.43 20.7633 252.253 20.5953 252.029 20.474C251.805 20.3527 251.544 20.292 251.245 20.292C250.965 20.292 250.708 20.3527 250.475 20.474C250.251 20.5953 250.074 20.7633 249.943 20.978C249.812 21.1833 249.747 21.4213 249.747 21.692C249.747 21.944 249.812 22.1727 249.943 22.378C250.083 22.5833 250.265 22.7467 250.489 22.868C250.722 22.9893 250.979 23.05 251.259 23.05Z" fill="#2D3047"/>
<path d="M260.764 29V21.944H262.654L264.978 26.802H264.516L266.812 21.944H268.758V29H267.106V24.128L267.288 24.184L265.328 28.258H264.11L262.206 24.282L262.346 24.24V29H260.764ZM274.412 23.344H270.24V22.336L272.326 20.446C272.569 20.222 272.732 20.0307 272.816 19.872C272.9 19.704 272.942 19.536 272.942 19.368C272.942 19.144 272.872 18.9667 272.732 18.836C272.592 18.696 272.419 18.626 272.214 18.626C271.99 18.626 271.775 18.6913 271.57 18.822C271.365 18.9527 271.155 19.1813 270.94 19.508L270.086 18.654C270.366 18.2807 270.688 17.996 271.052 17.8C271.416 17.604 271.822 17.506 272.27 17.506C272.681 17.506 273.04 17.5853 273.348 17.744C273.665 17.9027 273.913 18.1173 274.09 18.388C274.267 18.6587 274.356 18.9667 274.356 19.312C274.356 19.676 274.253 20.026 274.048 20.362C273.852 20.698 273.493 21.0947 272.97 21.552L271.976 22.434L271.92 22.266H274.412V23.344Z" fill="#2D3047"/>
</svg>
