<svg width="270" height="270" viewBox="0 0 270 270" fill="none" xmlns="http://www.w3.org/2000/svg">
<path fill-rule="evenodd" clip-rule="evenodd" d="M0 269L0 270H1H40V269H1L1 230H0L0 269Z" fill="#DACFCA"/>
<path d="M230 270V269H269V230H270V270H230Z" fill="#DACFCA"/>
<path fill-rule="evenodd" clip-rule="evenodd" d="M270 1V0L269 0L230 0V1L269 1V40H270V1Z" fill="#DACFCA"/>
<path fill-rule="evenodd" clip-rule="evenodd" d="M1 0H0V1V40H1V1H40V0H1Z" fill="#DACFCA"/>
<path d="M91.4548 65.85L92.4628 66.84C91.9468 67.596 91.2568 68.196 90.3928 68.64C89.5288 69.072 88.6288 69.288 87.6928 69.288C86.8168 69.288 86.0068 69.12 85.2628 68.784C84.5188 68.448 83.8648 67.974 83.3008 67.362C82.7488 66.75 82.3168 66.036 82.0048 65.22C81.7048 64.404 81.5548 63.522 81.5548 62.574C81.5548 61.614 81.7108 60.726 82.0228 59.91C82.3348 59.094 82.7668 58.38 83.3188 57.768C83.8708 57.156 84.5248 56.682 85.2808 56.346C86.0368 56.01 86.8528 55.842 87.7288 55.842C88.7128 55.842 89.6068 56.052 90.4108 56.472C91.2268 56.892 91.9108 57.498 92.4628 58.29L91.4548 59.28C91.0108 58.572 90.4708 58.038 89.8348 57.678C89.2108 57.318 88.4968 57.138 87.6928 57.138C86.8048 57.138 86.0068 57.372 85.2988 57.84C84.6028 58.308 84.0508 58.95 83.6428 59.766C83.2468 60.582 83.0488 61.518 83.0488 62.574C83.0488 63.606 83.2468 64.536 83.6428 65.364C84.0508 66.18 84.6028 66.822 85.2988 67.29C86.0068 67.758 86.8048 67.992 87.6928 67.992C88.4848 67.992 89.1988 67.812 89.8348 67.452C90.4828 67.08 91.0228 66.546 91.4548 65.85ZM96.2383 72.492H94.8523V60.144H96.2203V62.826H95.8963C95.9923 62.238 96.2083 61.722 96.5443 61.278C96.8803 60.834 97.3003 60.486 97.8043 60.234C98.3203 59.982 98.8783 59.856 99.4783 59.856C100.294 59.856 101.014 60.06 101.638 60.468C102.262 60.876 102.754 61.44 103.114 62.16C103.474 62.868 103.654 63.672 103.654 64.572C103.654 65.484 103.468 66.294 103.096 67.002C102.724 67.71 102.214 68.268 101.566 68.676C100.93 69.084 100.198 69.288 99.3703 69.288C98.6263 69.288 97.9723 69.126 97.4083 68.802C96.8443 68.466 96.4183 68.016 96.1303 67.452C95.8423 66.876 95.7343 66.234 95.8063 65.526L96.0763 65.166C96.1243 65.73 96.2863 66.234 96.5623 66.678C96.8503 67.11 97.2223 67.452 97.6783 67.704C98.1343 67.956 98.6323 68.082 99.1723 68.082C99.7723 68.082 100.294 67.932 100.738 67.632C101.194 67.332 101.548 66.918 101.8 66.39C102.064 65.862 102.196 65.256 102.196 64.572C102.196 63.888 102.07 63.282 101.818 62.754C101.578 62.226 101.236 61.812 100.792 61.512C100.36 61.212 99.8563 61.062 99.2803 61.062C98.6923 61.062 98.1703 61.224 97.7143 61.548C97.2583 61.86 96.8983 62.298 96.6343 62.862C96.3703 63.426 96.2383 64.08 96.2383 64.824V72.492ZM110.025 69.288C109.173 69.288 108.411 69.084 107.739 68.676C107.067 68.268 106.539 67.71 106.155 67.002C105.783 66.294 105.597 65.484 105.597 64.572C105.597 63.66 105.783 62.85 106.155 62.142C106.539 61.434 107.067 60.876 107.739 60.468C108.411 60.06 109.173 59.856 110.025 59.856C110.889 59.856 111.657 60.06 112.329 60.468C113.001 60.876 113.523 61.434 113.895 62.142C114.279 62.85 114.471 63.66 114.471 64.572C114.471 65.484 114.279 66.294 113.895 67.002C113.523 67.71 113.001 68.268 112.329 68.676C111.657 69.084 110.889 69.288 110.025 69.288ZM110.025 68.082C110.625 68.082 111.147 67.932 111.591 67.632C112.035 67.332 112.383 66.918 112.635 66.39C112.887 65.862 113.013 65.256 113.013 64.572C113.013 63.876 112.887 63.27 112.635 62.754C112.383 62.226 112.035 61.812 111.591 61.512C111.147 61.212 110.625 61.062 110.025 61.062C109.437 61.062 108.921 61.212 108.477 61.512C108.033 61.812 107.685 62.226 107.433 62.754C107.181 63.27 107.055 63.876 107.055 64.572C107.055 65.256 107.181 65.862 107.433 66.39C107.685 66.918 108.033 67.332 108.477 67.632C108.921 67.932 109.437 68.082 110.025 68.082ZM116.966 69V60.144H118.352V69H116.966ZM122.582 69L117.758 64.392H117.956L122.276 60.144H124.112L119.468 64.662L119.09 63.906L124.526 69H122.582ZM126.229 69V60.144H127.615V67.236L127.471 67.074L132.691 60.144H133.897V69H132.511V61.944L132.637 62.106L127.435 69H126.229ZM147.421 66.642L148.393 67.56C147.985 68.112 147.481 68.538 146.881 68.838C146.281 69.138 145.609 69.288 144.865 69.288C144.001 69.288 143.233 69.09 142.561 68.694C141.901 68.286 141.379 67.728 140.995 67.02C140.623 66.312 140.437 65.496 140.437 64.572C140.437 63.648 140.629 62.832 141.013 62.124C141.397 61.416 141.925 60.864 142.597 60.468C143.269 60.06 144.037 59.856 144.901 59.856C146.401 59.856 147.571 60.432 148.411 61.584L147.421 62.502C147.169 62.046 146.821 61.692 146.377 61.44C145.933 61.188 145.429 61.062 144.865 61.062C143.989 61.062 143.275 61.38 142.723 62.016C142.171 62.652 141.895 63.504 141.895 64.572C141.895 65.628 142.171 66.48 142.723 67.128C143.287 67.764 144.019 68.082 144.919 68.082C145.459 68.082 145.939 67.962 146.359 67.722C146.779 67.47 147.133 67.11 147.421 66.642ZM149.349 71.286V67.83H150.087C150.291 67.83 150.447 67.776 150.555 67.668C150.675 67.56 150.771 67.374 150.843 67.11C150.915 66.846 150.975 66.492 151.023 66.048L151.671 60.144H157.503V68.28H156.117V60.864L156.567 61.314H152.481L152.985 60.864L152.355 66.156C152.223 67.188 151.983 67.866 151.635 68.19L151.455 67.83H158.637V71.286H157.323V68.55L157.773 69H150.213L150.663 68.55V71.286H149.349ZM167.857 69H166.543V67.272L166.525 66.768V63.474C166.525 62.73 166.297 62.142 165.841 61.71C165.397 61.266 164.785 61.044 164.005 61.044C162.985 61.044 162.121 61.47 161.413 62.322L160.513 61.44C161.521 60.384 162.715 59.856 164.095 59.856C164.851 59.856 165.511 60.006 166.075 60.306C166.639 60.594 167.077 61.008 167.389 61.548C167.701 62.076 167.857 62.7 167.857 63.42V69ZM163.411 69.288C162.787 69.288 162.235 69.168 161.755 68.928C161.275 68.688 160.897 68.358 160.621 67.938C160.357 67.506 160.225 67.02 160.225 66.48C160.225 65.58 160.567 64.866 161.251 64.338C161.947 63.81 162.877 63.546 164.041 63.546H166.687V64.662H164.203C163.399 64.662 162.775 64.818 162.331 65.13C161.887 65.43 161.665 65.862 161.665 66.426C161.665 66.942 161.839 67.356 162.187 67.668C162.547 67.98 163.021 68.136 163.609 68.136C164.185 68.136 164.701 68.016 165.157 67.776C165.613 67.524 165.979 67.182 166.255 66.75C166.531 66.306 166.687 65.802 166.723 65.238L167.245 65.544C167.245 66.264 167.077 66.906 166.741 67.47C166.417 68.034 165.967 68.478 165.391 68.802C164.815 69.126 164.155 69.288 163.411 69.288ZM175.979 69V60.144H177.365V69H175.979ZM173.351 66.012C172.259 66.012 171.431 65.724 170.867 65.148C170.303 64.56 170.021 63.708 170.021 62.592V60.144H171.407V62.448C171.407 63.276 171.575 63.882 171.911 64.266C172.259 64.638 172.799 64.824 173.531 64.824C174.407 64.824 175.289 64.524 176.177 63.924L176.627 64.824C176.339 65.088 176.021 65.31 175.673 65.49C175.325 65.658 174.959 65.79 174.575 65.886C174.191 65.97 173.783 66.012 173.351 66.012ZM180.423 69V60.144H181.809V67.236L181.665 67.074L186.885 60.144H188.091V69H186.705V61.944L186.831 62.106L181.629 69H180.423Z" fill="#556877"/>
<path d="M87.1758 130C87.1758 129.4 87.1758 128.8 87.1758 128.2C87.1758 127.6 87.1758 127 87.1758 126.4C87.1758 125.32 87.3058 124.47 87.5658 123.85C87.8458 123.21 88.2558 122.69 88.7958 122.29C89.3558 121.87 90.0658 121.45 90.9258 121.03C91.6258 120.69 92.1758 120.35 92.5758 120.01C92.9758 119.67 93.2658 119.27 93.4458 118.81C93.6458 118.33 93.7458 117.72 93.7458 116.98C93.7658 116.24 93.6658 115.67 93.4458 115.27C93.2258 114.87 92.8358 114.67 92.2758 114.67C91.7358 114.67 91.3458 114.91 91.1058 115.39C90.8858 115.85 90.7758 116.54 90.7758 117.46V118.69H87.2958V116.47C87.2958 115.03 87.7158 113.96 88.5558 113.26C89.4158 112.54 90.6758 112.18 92.3358 112.18C93.5958 112.18 94.5958 112.35 95.3358 112.69C96.0758 113.03 96.5958 113.56 96.8958 114.28C97.2158 115 97.3758 115.95 97.3758 117.13C97.3758 118.53 97.1458 119.66 96.6858 120.52C96.2258 121.38 95.4458 122.11 94.3458 122.71C93.8658 122.95 93.4158 123.19 92.9958 123.43C92.5758 123.67 92.2058 123.93 91.8858 124.21C91.5858 124.49 91.3658 124.85 91.2258 125.29C91.1058 125.55 91.0058 125.84 90.9258 126.16C90.8458 126.46 90.8058 126.79 90.8058 127.15H97.4358V130H87.1758ZM104.027 130V115.15H107.447V120.31C107.987 119.25 108.627 118.34 109.367 117.58C110.127 116.8 110.937 116.22 111.797 115.84C112.657 115.44 113.497 115.28 114.317 115.36V117.61C113.837 117.71 113.407 117.89 113.027 118.15C112.647 118.39 112.317 118.66 112.037 118.96C111.857 119.16 111.687 119.37 111.527 119.59C111.367 119.79 111.217 120.01 111.077 120.25L114.257 130H110.327L108.077 124.03C107.957 124.21 107.837 124.42 107.717 124.66C107.617 124.88 107.527 125.06 107.447 125.2V130H104.027ZM116.039 130V115.15H122.249C123.429 115.15 124.319 115.41 124.919 115.93C125.539 116.45 125.849 117.2 125.849 118.18V119.2C125.849 120.08 125.609 120.8 125.129 121.36C124.669 121.92 123.989 122.24 123.089 122.32C123.969 122.32 124.709 122.59 125.309 123.13C125.909 123.65 126.209 124.49 126.209 125.65V126.28C126.209 127.26 126.029 128.02 125.669 128.56C125.329 129.1 124.849 129.48 124.229 129.7C123.609 129.9 122.859 130 121.979 130H116.039ZM119.669 128.26H121.079C121.359 128.26 121.599 128.22 121.799 128.14C121.999 128.04 122.149 127.86 122.249 127.6C122.369 127.34 122.429 126.97 122.429 126.49V125.11C122.429 124.73 122.369 124.44 122.249 124.24C122.149 124.02 121.989 123.86 121.769 123.76C121.549 123.66 121.289 123.61 120.989 123.61H119.669V128.26ZM119.669 121.36H120.989C121.449 121.36 121.789 121.22 122.009 120.94C122.249 120.66 122.369 120.21 122.369 119.59V118.3C122.369 117.9 122.259 117.59 122.039 117.37C121.839 117.15 121.549 117.04 121.169 117.04H119.669V121.36ZM130.987 130.24C130.467 130.24 129.977 130.17 129.517 130.03C129.077 129.89 128.707 129.6 128.407 129.16C128.127 128.7 127.987 128.03 127.987 127.15V125.17C127.987 124.23 128.257 123.47 128.797 122.89C129.357 122.29 130.227 121.78 131.407 121.36C132.027 121.1 132.517 120.87 132.877 120.67C133.237 120.47 133.497 120.23 133.657 119.95C133.817 119.65 133.897 119.25 133.897 118.75V117.94C133.897 117.62 133.847 117.38 133.747 117.22C133.647 117.04 133.497 116.91 133.297 116.83C133.117 116.75 132.907 116.71 132.667 116.71C132.147 116.71 131.807 116.89 131.647 117.25C131.487 117.59 131.407 118.17 131.407 118.99V120.25H128.317V118.66C128.317 117.92 128.417 117.27 128.617 116.71C128.837 116.13 129.257 115.68 129.877 115.36C130.497 115.02 131.427 114.85 132.667 114.85C133.927 114.85 134.897 114.97 135.577 115.21C136.257 115.43 136.727 115.79 136.987 116.29C137.247 116.77 137.377 117.43 137.377 118.27V130H133.957V128.35C133.797 128.93 133.427 129.39 132.847 129.73C132.287 130.07 131.667 130.24 130.987 130.24ZM132.457 127.99C132.997 127.99 133.367 127.79 133.567 127.39C133.787 126.97 133.897 126.39 133.897 125.65V121.84C133.777 122.04 133.577 122.22 133.297 122.38C133.017 122.52 132.737 122.68 132.457 122.86C132.077 123.12 131.787 123.39 131.587 123.67C131.387 123.93 131.287 124.3 131.287 124.78V126.31C131.287 126.73 131.337 127.07 131.437 127.33C131.537 127.57 131.677 127.74 131.857 127.84C132.037 127.94 132.237 127.99 132.457 127.99ZM139.421 133.48V115.15H142.811V116.32C143.011 115.98 143.291 115.66 143.651 115.36C144.011 115.06 144.601 114.91 145.421 114.91C146.121 114.91 146.721 115.03 147.221 115.27C147.721 115.49 148.111 115.86 148.391 116.38C148.671 116.88 148.811 117.57 148.811 118.45V125.65C148.811 126.75 148.691 127.64 148.451 128.32C148.211 128.98 147.841 129.46 147.341 129.76C146.841 130.04 146.201 130.18 145.421 130.18C144.721 130.18 144.161 130.06 143.741 129.82C143.341 129.56 143.041 129.27 142.841 128.95V133.48H139.421ZM144.131 128.26C144.431 128.26 144.661 128.22 144.821 128.14C144.981 128.04 145.101 127.91 145.181 127.75C145.281 127.59 145.341 127.41 145.361 127.21C145.381 126.99 145.391 126.75 145.391 126.49V118.81C145.391 118.55 145.381 118.31 145.361 118.09C145.341 117.87 145.281 117.68 145.181 117.52C145.101 117.36 144.981 117.24 144.821 117.16C144.661 117.08 144.431 117.04 144.131 117.04C143.851 117.04 143.621 117.09 143.441 117.19C143.281 117.27 143.151 117.39 143.051 117.55C142.971 117.69 142.911 117.85 142.871 118.03C142.851 118.21 142.841 118.37 142.841 118.51V126.58C142.841 126.92 142.871 127.22 142.931 127.48C143.011 127.74 143.141 127.94 143.321 128.08C143.501 128.2 143.771 128.26 144.131 128.26ZM152.827 130V117.61H150.007V115.15H159.157V117.61H156.307V130H152.827ZM163.214 130.24C162.694 130.24 162.204 130.17 161.744 130.03C161.304 129.89 160.934 129.6 160.634 129.16C160.354 128.7 160.214 128.03 160.214 127.15V125.17C160.214 124.23 160.484 123.47 161.024 122.89C161.584 122.29 162.454 121.78 163.634 121.36C164.254 121.1 164.744 120.87 165.104 120.67C165.464 120.47 165.724 120.23 165.884 119.95C166.044 119.65 166.124 119.25 166.124 118.75V117.94C166.124 117.62 166.074 117.38 165.974 117.22C165.874 117.04 165.724 116.91 165.524 116.83C165.344 116.75 165.134 116.71 164.894 116.71C164.374 116.71 164.034 116.89 163.874 117.25C163.714 117.59 163.634 118.17 163.634 118.99V120.25H160.544V118.66C160.544 117.92 160.644 117.27 160.844 116.71C161.064 116.13 161.484 115.68 162.104 115.36C162.724 115.02 163.654 114.85 164.894 114.85C166.154 114.85 167.124 114.97 167.804 115.21C168.484 115.43 168.954 115.79 169.214 116.29C169.474 116.77 169.604 117.43 169.604 118.27V130H166.184V128.35C166.024 128.93 165.654 129.39 165.074 129.73C164.514 130.07 163.894 130.24 163.214 130.24ZM164.684 127.99C165.224 127.99 165.594 127.79 165.794 127.39C166.014 126.97 166.124 126.39 166.124 125.65V121.84C166.004 122.04 165.804 122.22 165.524 122.38C165.244 122.52 164.964 122.68 164.684 122.86C164.304 123.12 164.014 123.39 163.814 123.67C163.614 123.93 163.514 124.3 163.514 124.78V126.31C163.514 126.73 163.564 127.07 163.664 127.33C163.764 127.57 163.904 127.74 164.084 127.84C164.264 127.94 164.464 127.99 164.684 127.99ZM170.927 130V128.2C171.307 128.2 171.657 127.98 171.977 127.54C172.297 127.1 172.477 126.56 172.517 125.92L173.447 115.15H182.627V130H179.117V117.58H176.927L175.997 126.82C175.957 127.14 175.917 127.49 175.877 127.87C175.837 128.23 175.727 128.57 175.547 128.89C175.367 129.21 175.087 129.48 174.707 129.7C174.347 129.9 173.817 130 173.117 130H170.927Z" fill="#A3887B"/>
<path d="M74.6172 204C74.6172 202.4 74.6172 200.8 74.6172 199.2C74.6172 197.6 74.6172 196 74.6172 194.4C74.6172 191.52 74.9639 189.253 75.6572 187.6C76.4039 185.893 77.4972 184.507 78.9372 183.44C80.4305 182.32 82.3239 181.2 84.6172 180.08C86.4839 179.173 87.9505 178.267 89.0172 177.36C90.0839 176.453 90.8572 175.387 91.3372 174.16C91.8705 172.88 92.1372 171.253 92.1372 169.28C92.1905 167.307 91.9239 165.787 91.3372 164.72C90.7505 163.653 89.7105 163.12 88.2172 163.12C86.7772 163.12 85.7372 163.76 85.0972 165.04C84.5105 166.267 84.2172 168.107 84.2172 170.56V173.84H74.9372V167.92C74.9372 164.08 76.0572 161.227 78.2972 159.36C80.5905 157.44 83.9505 156.48 88.3772 156.48C91.7372 156.48 94.4039 156.933 96.3772 157.84C98.3505 158.747 99.7372 160.16 100.537 162.08C101.391 164 101.817 166.533 101.817 169.68C101.817 173.413 101.204 176.427 99.9772 178.72C98.7505 181.013 96.6705 182.96 93.7372 184.56C92.4572 185.2 91.2572 185.84 90.1372 186.48C89.0172 187.12 88.0305 187.813 87.1772 188.56C86.3772 189.307 85.7905 190.267 85.4172 191.44C85.0972 192.133 84.8305 192.907 84.6172 193.76C84.4039 194.56 84.2972 195.44 84.2972 196.4H101.977V204H74.6172ZM119.393 205.04C116.779 204.987 114.459 204.453 112.433 203.44C110.459 202.373 108.913 200.693 107.793 198.4C106.673 196.053 106.113 192.96 106.113 189.12V169.92C106.113 165.227 107.339 161.76 109.793 159.52C112.299 157.28 115.553 156.16 119.553 156.16C123.393 156.16 126.513 157.28 128.913 159.52C131.366 161.76 132.593 165.227 132.593 169.92V189.04C132.593 192.987 132.033 196.133 130.913 198.48C129.846 200.827 128.299 202.507 126.273 203.52C124.299 204.533 122.006 205.04 119.393 205.04ZM119.393 199.52C120.566 199.52 121.526 199.067 122.273 198.16C123.019 197.2 123.393 195.787 123.393 193.92V167.36C123.393 165.493 122.993 164.107 122.193 163.2C121.446 162.24 120.513 161.76 119.393 161.76C118.273 161.76 117.313 162.24 116.513 163.2C115.766 164.107 115.393 165.493 115.393 167.36V193.92C115.393 195.787 115.766 197.2 116.513 198.16C117.313 199.067 118.273 199.52 119.393 199.52ZM137.039 204C137.039 202.4 137.039 200.8 137.039 199.2C137.039 197.6 137.039 196 137.039 194.4C137.039 191.52 137.386 189.253 138.079 187.6C138.826 185.893 139.919 184.507 141.359 183.44C142.852 182.32 144.746 181.2 147.039 180.08C148.906 179.173 150.372 178.267 151.439 177.36C152.506 176.453 153.279 175.387 153.759 174.16C154.292 172.88 154.559 171.253 154.559 169.28C154.612 167.307 154.346 165.787 153.759 164.72C153.172 163.653 152.132 163.12 150.639 163.12C149.199 163.12 148.159 163.76 147.519 165.04C146.932 166.267 146.639 168.107 146.639 170.56V173.84H137.359V167.92C137.359 164.08 138.479 161.227 140.719 159.36C143.012 157.44 146.372 156.48 150.799 156.48C154.159 156.48 156.826 156.933 158.799 157.84C160.772 158.747 162.159 160.16 162.959 162.08C163.812 164 164.239 166.533 164.239 169.68C164.239 173.413 163.626 176.427 162.399 178.72C161.172 181.013 159.092 182.96 156.159 184.56C154.879 185.2 153.679 185.84 152.559 186.48C151.439 187.12 150.452 187.813 149.599 188.56C148.799 189.307 148.212 190.267 147.839 191.44C147.519 192.133 147.252 192.907 147.039 193.76C146.826 194.56 146.719 195.44 146.719 196.4H164.399V204H137.039ZM181.735 204.64C178.428 204.64 175.761 204.32 173.735 203.68C171.761 202.987 170.321 201.733 169.415 199.92C168.561 198.107 168.135 195.493 168.135 192.08V188H177.415V191.28C177.415 193.84 177.761 195.6 178.455 196.56C179.148 197.467 180.241 197.92 181.735 197.92C183.175 197.92 184.188 197.413 184.775 196.4C185.415 195.333 185.735 193.573 185.735 191.12V183.36C185.735 182.347 185.628 181.413 185.415 180.56C185.201 179.707 184.801 179.04 184.215 178.56C183.628 178.027 182.775 177.76 181.655 177.76C180.481 177.76 179.521 178.107 178.775 178.8C178.081 179.493 177.628 180.453 177.415 181.68H168.215V156.72H194.295V163.36H177.415V175.04C177.895 174.133 178.748 173.333 179.975 172.64C181.201 171.893 182.988 171.52 185.335 171.52C188.855 171.52 191.388 172.24 192.935 173.68C194.535 175.12 195.335 177.6 195.335 181.12V192.32C195.335 195.52 194.801 198.027 193.735 199.84C192.721 201.6 191.201 202.853 189.175 203.6C187.201 204.293 184.721 204.64 181.735 204.64Z" fill="#A3887B"/>
</svg>
