<svg width="295" height="48" viewBox="0 0 295 48" fill="none" xmlns="http://www.w3.org/2000/svg">
<circle cx="17" cy="24" r="17" fill="#8C6659"/>
<path d="M16.103 26.44L15.623 22.096L15.479 15.88H18.455L18.311 22.048L17.831 26.44H16.103ZM17.063 31.168C16.631 31.168 16.263 31.032 15.959 30.76C15.671 30.488 15.527 30.152 15.527 29.752C15.527 29.368 15.671 29.04 15.959 28.768C16.263 28.48 16.631 28.336 17.063 28.336C17.495 28.336 17.855 28.48 18.143 28.768C18.447 29.04 18.599 29.368 18.599 29.752C18.599 30.152 18.447 30.488 18.143 30.76C17.855 31.032 17.495 31.168 17.063 31.168Z" fill="white"/>
<rect x="39.5" y="0.5" width="255" height="47" fill="white"/>
<rect x="39.5" y="0.5" width="255" height="47" stroke="#DACFCA"/>
<path d="M59.7 29V28.006H60.344C60.5587 28.006 60.722 27.9453 60.834 27.824C60.9553 27.7027 61.03 27.5207 61.058 27.278L62.024 18.99H67.736V29H66.616V19.578L66.938 19.984H62.724L63.046 19.564L62.108 27.474C62.0427 27.9967 61.8747 28.384 61.604 28.636C61.3333 28.8787 60.946 29 60.442 29H59.7ZM75.6526 27.026L76.3806 27.726C76.0166 28.23 75.5872 28.608 75.0926 28.86C74.6072 29.1027 74.0706 29.224 73.4826 29.224C72.7919 29.224 72.1806 29.0653 71.6486 28.748C71.1259 28.4307 70.7152 27.9967 70.4166 27.446C70.1272 26.886 69.9826 26.256 69.9826 25.556C69.9826 24.856 70.1272 24.2307 70.4166 23.68C70.7152 23.12 71.1166 22.6813 71.6206 22.364C72.1339 22.0467 72.7079 21.888 73.3426 21.888C73.9679 21.888 74.5186 22.042 74.9946 22.35C75.4799 22.658 75.8579 23.0873 76.1286 23.638C76.3992 24.1793 76.5346 24.8047 76.5346 25.514V25.598H75.4426V25.5C75.4426 24.6973 75.2512 24.0533 74.8686 23.568C74.4859 23.0733 73.9772 22.826 73.3426 22.826C72.9132 22.826 72.5259 22.9427 72.1806 23.176C71.8446 23.4 71.5786 23.7173 71.3826 24.128C71.1959 24.5387 71.1026 25.01 71.1026 25.542C71.1026 26.074 71.2006 26.5453 71.3966 26.956C71.6019 27.3667 71.8866 27.6933 72.2506 27.936C72.6239 28.1693 73.0579 28.286 73.5526 28.286C73.9819 28.286 74.3692 28.1833 74.7146 27.978C75.0599 27.7727 75.3726 27.4553 75.6526 27.026ZM76.5346 25.934H70.8366V25.052H76.3246L76.5346 25.514V25.934ZM83.481 27.166L84.237 27.88C83.9196 28.3093 83.5276 28.6407 83.061 28.874C82.5943 29.1073 82.0716 29.224 81.493 29.224C80.821 29.224 80.2236 29.07 79.701 28.762C79.1876 28.4447 78.7816 28.0107 78.483 27.46C78.1936 26.9093 78.049 26.2747 78.049 25.556C78.049 24.8373 78.1983 24.2027 78.497 23.652C78.7956 23.1013 79.2063 22.672 79.729 22.364C80.2516 22.0467 80.849 21.888 81.521 21.888C82.6876 21.888 83.5976 22.336 84.251 23.232L83.481 23.946C83.285 23.5913 83.0143 23.316 82.669 23.12C82.3236 22.924 81.9316 22.826 81.493 22.826C80.8116 22.826 80.2563 23.0733 79.827 23.568C79.3976 24.0627 79.183 24.7253 79.183 25.556C79.183 26.3773 79.3976 27.04 79.827 27.544C80.2656 28.0387 80.835 28.286 81.535 28.286C81.955 28.286 82.3283 28.1927 82.655 28.006C82.9816 27.81 83.257 27.53 83.481 27.166ZM85.1658 23.022V22.112H90.9898V23.022H85.1658ZM87.5458 29V22.406H88.6098V29H87.5458ZM92.6744 29V22.112H93.7524V29H92.6744ZM97.4904 29V22.112H98.5684V29H97.4904ZM93.1504 25.836V24.926H98.1344V25.836H93.1504ZM100.946 29V22.112H102.024V27.628L101.912 27.502L105.972 22.112H106.91V29H105.832V23.512L105.93 23.638L101.884 29H100.946ZM113.486 29V22.112H114.564V29H113.486ZM111.442 26.676C110.592 26.676 109.948 26.452 109.51 26.004C109.071 25.5467 108.852 24.884 108.852 24.016V22.112H109.93V23.904C109.93 24.548 110.06 25.0193 110.322 25.318C110.592 25.6073 111.012 25.752 111.582 25.752C112.263 25.752 112.949 25.5187 113.64 25.052L113.99 25.752C113.766 25.9573 113.518 26.13 113.248 26.27C112.977 26.4007 112.692 26.5033 112.394 26.578C112.095 26.6433 111.778 26.676 111.442 26.676ZM116.942 29V22.112H118.02V29H116.942ZM121.758 29V22.112H122.836V29H121.758ZM117.418 25.836V24.926H122.402V25.836H117.418ZM130.561 29H129.539V27.656L129.525 27.264V24.702C129.525 24.1233 129.348 23.666 128.993 23.33C128.648 22.9847 128.172 22.812 127.565 22.812C126.772 22.812 126.1 23.1433 125.549 23.806L124.849 23.12C125.633 22.2987 126.562 21.888 127.635 21.888C128.223 21.888 128.737 22.0047 129.175 22.238C129.614 22.462 129.955 22.784 130.197 23.204C130.44 23.6147 130.561 24.1 130.561 24.66V29ZM127.103 29.224C126.618 29.224 126.189 29.1307 125.815 28.944C125.442 28.7573 125.148 28.5007 124.933 28.174C124.728 27.838 124.625 27.46 124.625 27.04C124.625 26.34 124.891 25.7847 125.423 25.374C125.965 24.9633 126.688 24.758 127.593 24.758H129.651V25.626H127.719C127.094 25.626 126.609 25.7473 126.263 25.99C125.918 26.2233 125.745 26.5593 125.745 26.998C125.745 27.3993 125.881 27.7213 126.151 27.964C126.431 28.2067 126.8 28.328 127.257 28.328C127.705 28.328 128.107 28.2347 128.461 28.048C128.816 27.852 129.101 27.586 129.315 27.25C129.53 26.9047 129.651 26.5127 129.679 26.074L130.085 26.312C130.085 26.872 129.955 27.3713 129.693 27.81C129.441 28.2487 129.091 28.594 128.643 28.846C128.195 29.098 127.682 29.224 127.103 29.224ZM132.325 29L134.817 25.766H136.007L133.585 29H132.325ZM137.015 29V22.854L137.183 23.022H135.013C134.602 23.022 134.28 23.1247 134.047 23.33C133.814 23.5353 133.697 23.8247 133.697 24.198C133.697 24.5713 133.814 24.8653 134.047 25.08C134.28 25.2853 134.602 25.388 135.013 25.388H137.673V26.298H135.013C134.285 26.298 133.697 26.1067 133.249 25.724C132.81 25.3413 132.591 24.8327 132.591 24.198C132.591 23.7873 132.694 23.428 132.899 23.12C133.104 22.8027 133.389 22.5553 133.753 22.378C134.117 22.2007 134.537 22.112 135.013 22.112H138.093V29H137.015ZM143.616 29V22.112H144.694V29H143.616ZM147.984 29L144.232 25.416H144.386L147.746 22.112H149.174L145.562 25.626L145.268 25.038L149.496 29H147.984ZM150.191 29V28.076H150.765C150.98 28.076 151.143 28.0107 151.255 27.88C151.367 27.74 151.437 27.4973 151.465 27.152L151.871 22.112H156.533V29H155.455V22.854L155.623 23.022H152.697L152.879 22.854L152.487 27.306C152.431 27.9313 152.277 28.37 152.025 28.622C151.782 28.874 151.404 29 150.891 29H150.191ZM164.151 27.026L164.879 27.726C164.515 28.23 164.085 28.608 163.591 28.86C163.105 29.1027 162.569 29.224 161.981 29.224C161.29 29.224 160.679 29.0653 160.147 28.748C159.624 28.4307 159.213 27.9967 158.915 27.446C158.625 26.886 158.481 26.256 158.481 25.556C158.481 24.856 158.625 24.2307 158.915 23.68C159.213 23.12 159.615 22.6813 160.119 22.364C160.632 22.0467 161.206 21.888 161.841 21.888C162.466 21.888 163.017 22.042 163.493 22.35C163.978 22.658 164.356 23.0873 164.627 23.638C164.897 24.1793 165.033 24.8047 165.033 25.514V25.598H163.941V25.5C163.941 24.6973 163.749 24.0533 163.367 23.568C162.984 23.0733 162.475 22.826 161.841 22.826C161.411 22.826 161.024 22.9427 160.679 23.176C160.343 23.4 160.077 23.7173 159.881 24.128C159.694 24.5387 159.601 25.01 159.601 25.542C159.601 26.074 159.699 26.5453 159.895 26.956C160.1 27.3667 160.385 27.6933 160.749 27.936C161.122 28.1693 161.556 28.286 162.051 28.286C162.48 28.286 162.867 28.1833 163.213 27.978C163.558 27.7727 163.871 27.4553 164.151 27.026ZM165.033 25.934H159.335V25.052H164.823L165.033 25.514V25.934ZM165.857 23.022V22.112H171.681V23.022H165.857ZM168.237 29V22.406H169.301V29H168.237ZM173.366 29V22.112H174.444V29H173.366ZM177.734 29L173.982 25.416H174.136L177.496 22.112H178.924L175.312 25.626L175.018 25.038L179.246 29H177.734ZM185.645 29H184.623V27.656L184.609 27.264V24.702C184.609 24.1233 184.432 23.666 184.077 23.33C183.732 22.9847 183.256 22.812 182.649 22.812C181.856 22.812 181.184 23.1433 180.633 23.806L179.933 23.12C180.717 22.2987 181.646 21.888 182.719 21.888C183.307 21.888 183.821 22.0047 184.259 22.238C184.698 22.462 185.039 22.784 185.281 23.204C185.524 23.6147 185.645 24.1 185.645 24.66V29ZM182.187 29.224C181.702 29.224 181.273 29.1307 180.899 28.944C180.526 28.7573 180.232 28.5007 180.017 28.174C179.812 27.838 179.709 27.46 179.709 27.04C179.709 26.34 179.975 25.7847 180.507 25.374C181.049 24.9633 181.772 24.758 182.677 24.758H184.735V25.626H182.803C182.178 25.626 181.693 25.7473 181.347 25.99C181.002 26.2233 180.829 26.5593 180.829 26.998C180.829 27.3993 180.965 27.7213 181.235 27.964C181.515 28.2067 181.884 28.328 182.341 28.328C182.789 28.328 183.191 28.2347 183.545 28.048C183.9 27.852 184.185 27.586 184.399 27.25C184.614 26.9047 184.735 26.5127 184.763 26.074L185.169 26.312C185.169 26.872 185.039 27.3713 184.777 27.81C184.525 28.2487 184.175 28.594 183.727 28.846C183.279 29.098 182.766 29.224 182.187 29.224Z" fill="#2D3047"/>
<path d="M231.808 18.99H233.39V29H231.5V21.006L229.148 22.7V20.782L231.808 18.99ZM235.474 27.502L236.678 26.284C237.032 26.7693 237.396 27.1193 237.77 27.334C238.152 27.5487 238.572 27.656 239.03 27.656C239.384 27.656 239.702 27.5953 239.982 27.474C240.262 27.3433 240.486 27.1613 240.654 26.928C240.822 26.6853 240.906 26.396 240.906 26.06C240.906 25.612 240.742 25.2573 240.416 24.996C240.089 24.7347 239.632 24.604 239.044 24.604H238.204V23.036H239.044C239.52 23.036 239.898 22.9147 240.178 22.672C240.458 22.4293 240.598 22.1073 240.598 21.706C240.598 21.3233 240.462 21.006 240.192 20.754C239.921 20.4927 239.562 20.362 239.114 20.362C238.666 20.362 238.269 20.4647 237.924 20.67C237.588 20.8753 237.252 21.2113 236.916 21.678L235.712 20.418C236.15 19.8673 236.668 19.4567 237.266 19.186C237.872 18.906 238.535 18.766 239.254 18.766C239.898 18.766 240.467 18.8873 240.962 19.13C241.456 19.3727 241.844 19.704 242.124 20.124C242.404 20.544 242.544 21.0293 242.544 21.58C242.544 22.056 242.413 22.4713 242.152 22.826C241.89 23.1807 241.522 23.4607 241.046 23.666C240.57 23.862 240.01 23.96 239.366 23.96L239.562 23.442C240.234 23.442 240.817 23.554 241.312 23.778C241.806 23.9927 242.184 24.3007 242.446 24.702C242.707 25.094 242.838 25.57 242.838 26.13C242.838 26.7367 242.679 27.2733 242.362 27.74C242.054 28.2067 241.624 28.5707 241.074 28.832C240.523 29.0933 239.884 29.224 239.156 29.224C238.372 29.224 237.672 29.084 237.056 28.804C236.449 28.5147 235.922 28.0807 235.474 27.502ZM245.212 31.128H244.078C244.825 30.2227 245.198 29.3453 245.198 28.496L245.408 29.182C245.063 29.182 244.774 29.07 244.54 28.846C244.316 28.622 244.204 28.342 244.204 28.006C244.204 27.6607 244.316 27.3807 244.54 27.166C244.764 26.942 245.049 26.83 245.394 26.83C245.74 26.83 246.02 26.9467 246.234 27.18C246.458 27.4133 246.57 27.7073 246.57 28.062C246.57 28.5753 246.449 29.1027 246.206 29.644C245.964 30.1853 245.632 30.68 245.212 31.128ZM251.687 18.766C252.406 18.766 253.04 18.9293 253.591 19.256C254.142 19.5733 254.571 20.0213 254.879 20.6C255.196 21.1787 255.355 21.846 255.355 22.602C255.355 23.3487 255.224 24.072 254.963 24.772C254.711 25.4627 254.305 26.158 253.745 26.858C253.194 27.5487 252.476 28.2627 251.589 29H249.125C249.9 28.3467 250.544 27.7633 251.057 27.25C251.58 26.7273 252.004 26.242 252.331 25.794C252.658 25.346 252.919 24.912 253.115 24.492L253.227 24.576C253.04 24.9307 252.774 25.206 252.429 25.402C252.084 25.598 251.668 25.696 251.183 25.696C250.558 25.696 250.002 25.556 249.517 25.276C249.032 24.996 248.649 24.604 248.369 24.1C248.089 23.5867 247.949 22.9987 247.949 22.336C247.949 21.6453 248.108 21.034 248.425 20.502C248.742 19.9607 249.181 19.536 249.741 19.228C250.31 18.92 250.959 18.766 251.687 18.766ZM251.673 20.32C251.318 20.32 251.001 20.404 250.721 20.572C250.441 20.74 250.222 20.9733 250.063 21.272C249.904 21.5613 249.825 21.902 249.825 22.294C249.825 22.6673 249.904 22.9987 250.063 23.288C250.222 23.5773 250.441 23.806 250.721 23.974C251.001 24.1327 251.318 24.212 251.673 24.212C252.028 24.212 252.34 24.1327 252.611 23.974C252.891 23.8153 253.11 23.5913 253.269 23.302C253.428 23.0127 253.507 22.6767 253.507 22.294C253.507 21.9113 253.428 21.5753 253.269 21.286C253.11 20.9873 252.891 20.754 252.611 20.586C252.34 20.4087 252.028 20.32 251.673 20.32Z" fill="#2D3047"/>
<path d="M260.764 29V21.944H262.654L264.978 26.802H264.516L266.812 21.944H268.758V29H267.106V24.128L267.288 24.184L265.328 28.258H264.11L262.206 24.282L262.346 24.24V29H260.764ZM274.412 23.344H270.24V22.336L272.326 20.446C272.569 20.222 272.732 20.0307 272.816 19.872C272.9 19.704 272.942 19.536 272.942 19.368C272.942 19.144 272.872 18.9667 272.732 18.836C272.592 18.696 272.419 18.626 272.214 18.626C271.99 18.626 271.775 18.6913 271.57 18.822C271.365 18.9527 271.155 19.1813 270.94 19.508L270.086 18.654C270.366 18.2807 270.688 17.996 271.052 17.8C271.416 17.604 271.822 17.506 272.27 17.506C272.681 17.506 273.04 17.5853 273.348 17.744C273.665 17.9027 273.913 18.1173 274.09 18.388C274.267 18.6587 274.356 18.9667 274.356 19.312C274.356 19.676 274.253 20.026 274.048 20.362C273.852 20.698 273.493 21.0947 272.97 21.552L271.976 22.434L271.92 22.266H274.412V23.344Z" fill="#2D3047"/>
</svg>
